<svg xmlns="http://www.w3.org/2000/svg" xmlns:xlink="http://www.w3.org/1999/xlink" width="400" zoomAndPan="magnify" viewBox="0 0 300 299.999988" height="400" preserveAspectRatio="xMidYMid meet" version="1.0"><defs><g/><clipPath id="9a523d87e2"><path d="M 1 0.480469 L 21 0.480469 L 21 24 L 1 24 Z M 1 0.480469 " clip-rule="nonzero"/></clipPath><clipPath id="163be31326"><path d="M 27 0.480469 L 38 0.480469 L 38 24 L 27 24 Z M 27 0.480469 " clip-rule="nonzero"/></clipPath><clipPath id="3f37bb5ffb"><path d="M 45 0.480469 L 67 0.480469 L 67 24 L 45 24 Z M 45 0.480469 " clip-rule="nonzero"/></clipPath><clipPath id="38eb317d49"><path d="M 74 0.480469 L 101 0.480469 L 101 24 L 74 24 Z M 74 0.480469 " clip-rule="nonzero"/></clipPath><clipPath id="dcfc36f960"><path d="M 108 0.480469 L 133 0.480469 L 133 24 L 108 24 Z M 108 0.480469 " clip-rule="nonzero"/></clipPath><clipPath id="1c71ac3e72"><rect x="0" width="140" y="0" height="32"/></clipPath><clipPath id="eaf63900b4"><rect x="0" width="209" y="0" height="12"/></clipPath><clipPath id="aa059b4ad3"><path d="M 99.359375 162 L 179.230469 162 L 179.230469 182.414062 L 99.359375 182.414062 Z M 99.359375 162 " clip-rule="nonzero"/></clipPath><clipPath id="f7dc4a169c"><path d="M 99.359375 56.46875 L 200.558594 56.46875 L 200.558594 182.261719 L 99.359375 182.261719 Z M 99.359375 56.46875 " clip-rule="nonzero"/></clipPath></defs><g transform="matrix(1, 0, 0, 1, 83, 198)"><g clip-path="url(#1c71ac3e72)"><g clip-path="url(#9a523d87e2)"><g fill="#000000" fill-opacity="1"><g transform="translate(0.964535, 23.067873)"><g><path d="M 7.65625 -22.125 C 8.375 -22.125 9.082031 -22.125 9.78125 -22.125 C 10.476562 -22.125 11.1875 -22.125 11.90625 -22.125 C 12.050781 -22.125 12.191406 -22.125 12.328125 -22.125 C 12.460938 -22.125 12.601562 -22.125 12.75 -22.125 C 12.863281 -22.125 12.984375 -22.125 13.109375 -22.125 C 13.234375 -22.125 13.335938 -22.101562 13.421875 -22.0625 C 13.460938 -22.039062 13.507812 -22.03125 13.5625 -22.03125 C 13.613281 -22.03125 13.660156 -22.019531 13.703125 -22 C 13.828125 -22 13.945312 -22 14.0625 -22 C 14.1875 -22 14.300781 -21.976562 14.40625 -21.9375 C 14.507812 -21.914062 14.613281 -21.882812 14.71875 -21.84375 C 14.820312 -21.800781 14.925781 -21.757812 15.03125 -21.71875 C 15.050781 -21.695312 15.070312 -21.6875 15.09375 -21.6875 C 15.207031 -21.644531 15.3125 -21.613281 15.40625 -21.59375 C 15.5 -21.570312 15.585938 -21.539062 15.671875 -21.5 C 15.773438 -21.414062 15.878906 -21.335938 15.984375 -21.265625 C 16.085938 -21.203125 16.191406 -21.128906 16.296875 -21.046875 C 16.410156 -20.984375 16.519531 -20.910156 16.625 -20.828125 C 16.726562 -20.742188 16.832031 -20.671875 16.9375 -20.609375 C 17.082031 -20.523438 17.25 -20.378906 17.4375 -20.171875 C 17.613281 -19.953125 17.789062 -19.742188 17.96875 -19.546875 C 18.144531 -19.347656 18.316406 -19.144531 18.484375 -18.9375 C 18.523438 -18.882812 18.554688 -18.835938 18.578125 -18.796875 C 18.597656 -18.753906 18.617188 -18.710938 18.640625 -18.671875 C 18.816406 -18.296875 18.9375 -17.925781 19 -17.5625 C 19.019531 -17.476562 19.035156 -17.390625 19.046875 -17.296875 C 19.054688 -17.203125 19.070312 -17.101562 19.09375 -17 C 19.113281 -16.914062 19.128906 -16.835938 19.140625 -16.765625 C 19.148438 -16.691406 19.15625 -16.613281 19.15625 -16.53125 C 19.15625 -16.4375 19.15625 -16.351562 19.15625 -16.28125 C 19.15625 -16.207031 19.15625 -16.128906 19.15625 -16.046875 C 19.15625 -15.921875 19.15625 -15.796875 19.15625 -15.671875 C 19.15625 -15.546875 19.144531 -15.421875 19.125 -15.296875 C 19.125 -15.179688 19.109375 -15.066406 19.078125 -14.953125 C 19.046875 -14.835938 19.019531 -14.726562 19 -14.625 C 18.976562 -14.476562 18.921875 -14.332031 18.828125 -14.1875 C 18.617188 -13.675781 18.398438 -13.210938 18.171875 -12.796875 C 18.023438 -12.535156 17.832031 -12.269531 17.59375 -12 C 17.363281 -11.769531 17.1875 -11.59375 17.0625 -11.46875 C 16.9375 -11.351562 16.796875 -11.242188 16.640625 -11.140625 C 16.492188 -11.035156 16.265625 -10.878906 15.953125 -10.671875 C 15.660156 -10.484375 15.347656 -10.328125 15.015625 -10.203125 C 14.691406 -10.085938 14.363281 -9.976562 14.03125 -9.875 C 13.976562 -9.851562 13.925781 -9.84375 13.875 -9.84375 C 13.820312 -9.84375 13.773438 -9.832031 13.734375 -9.8125 C 13.648438 -9.789062 13.570312 -9.78125 13.5 -9.78125 C 13.425781 -9.78125 13.347656 -9.769531 13.265625 -9.75 C 13.078125 -9.664062 12.851562 -9.625 12.59375 -9.625 C 12.507812 -9.601562 12.421875 -9.585938 12.328125 -9.578125 C 12.234375 -9.566406 12.132812 -9.550781 12.03125 -9.53125 C 11.945312 -9.507812 11.867188 -9.492188 11.796875 -9.484375 C 11.722656 -9.472656 11.640625 -9.457031 11.546875 -9.4375 C 11.378906 -9.414062 11.207031 -9.398438 11.03125 -9.390625 C 10.851562 -9.378906 10.679688 -9.351562 10.515625 -9.3125 C 10.429688 -9.289062 10.335938 -9.273438 10.234375 -9.265625 C 10.140625 -9.253906 10.039062 -9.25 9.9375 -9.25 C 9.789062 -9.25 9.632812 -9.25 9.46875 -9.25 C 9.300781 -9.25 9.128906 -9.238281 8.953125 -9.21875 C 8.867188 -9.21875 8.789062 -9.210938 8.71875 -9.203125 C 8.644531 -9.191406 8.566406 -9.175781 8.484375 -9.15625 C 8.296875 -9.101562 8.203125 -8.992188 8.203125 -8.828125 C 8.203125 -8.742188 8.195312 -8.664062 8.1875 -8.59375 C 8.175781 -8.519531 8.171875 -8.441406 8.171875 -8.359375 C 8.171875 -8.015625 8.171875 -7.675781 8.171875 -7.34375 C 8.171875 -7.007812 8.171875 -6.671875 8.171875 -6.328125 C 8.148438 -6.160156 8.140625 -5.988281 8.140625 -5.8125 C 8.140625 -5.632812 8.117188 -5.457031 8.078125 -5.28125 C 8.054688 -4.351562 8.054688 -3.414062 8.078125 -2.46875 C 8.117188 -2.320312 8.140625 -2.164062 8.140625 -2 C 8.140625 -1.84375 8.148438 -1.679688 8.171875 -1.515625 C 8.210938 -1.390625 8.253906 -1.304688 8.296875 -1.265625 C 8.421875 -1.140625 8.546875 -1.046875 8.671875 -0.984375 C 8.773438 -0.941406 8.878906 -0.898438 8.984375 -0.859375 C 9.097656 -0.816406 9.207031 -0.785156 9.3125 -0.765625 C 9.457031 -0.742188 9.597656 -0.707031 9.734375 -0.65625 C 9.867188 -0.613281 10.007812 -0.570312 10.15625 -0.53125 C 10.175781 -0.507812 10.195312 -0.488281 10.21875 -0.46875 C 10.238281 -0.445312 10.25 -0.414062 10.25 -0.375 C 10.320312 -0.3125 10.3125 -0.257812 10.21875 -0.21875 C 10.175781 -0.175781 10.15625 -0.15625 10.15625 -0.15625 C 9.945312 -0.0507812 9.757812 0 9.59375 0 C 9.550781 0 9.503906 0 9.453125 0 C 9.398438 0 9.351562 0 9.3125 0 C 8.101562 0.0195312 6.894531 0.03125 5.6875 0.03125 C 4.488281 0.03125 3.289062 0.0390625 2.09375 0.0625 C 1.945312 0.0625 1.800781 0.0625 1.65625 0.0625 C 1.519531 0.0625 1.367188 0.0625 1.203125 0.0625 C 1.179688 0.0625 1.128906 0.0390625 1.046875 0 C 1.003906 -0.0195312 0.960938 -0.0703125 0.921875 -0.15625 C 0.921875 -0.238281 0.953125 -0.289062 1.015625 -0.3125 C 1.054688 -0.351562 1.101562 -0.390625 1.15625 -0.421875 C 1.207031 -0.453125 1.265625 -0.476562 1.328125 -0.5 C 1.492188 -0.539062 1.648438 -0.585938 1.796875 -0.640625 C 1.953125 -0.703125 2.101562 -0.742188 2.25 -0.765625 C 2.414062 -0.785156 2.601562 -0.847656 2.8125 -0.953125 C 2.894531 -0.972656 2.96875 -1.007812 3.03125 -1.0625 C 3.101562 -1.113281 3.160156 -1.160156 3.203125 -1.203125 C 3.285156 -1.285156 3.347656 -1.398438 3.390625 -1.546875 C 3.429688 -1.828125 3.46875 -2.097656 3.5 -2.359375 C 3.53125 -2.617188 3.546875 -2.890625 3.546875 -3.171875 C 3.546875 -3.378906 3.550781 -3.585938 3.5625 -3.796875 C 3.570312 -4.003906 3.578125 -4.21875 3.578125 -4.4375 C 3.578125 -5.84375 3.582031 -7.253906 3.59375 -8.671875 C 3.601562 -10.085938 3.609375 -11.503906 3.609375 -12.921875 C 3.609375 -13.804688 3.613281 -14.695312 3.625 -15.59375 C 3.632812 -16.488281 3.628906 -17.390625 3.609375 -18.296875 C 3.585938 -18.648438 3.582031 -19.015625 3.59375 -19.390625 C 3.601562 -19.773438 3.609375 -20.148438 3.609375 -20.515625 C 3.609375 -20.554688 3.601562 -20.601562 3.59375 -20.65625 C 3.582031 -20.707031 3.578125 -20.753906 3.578125 -20.796875 C 3.578125 -20.835938 3.554688 -20.898438 3.515625 -20.984375 C 3.429688 -21.085938 3.335938 -21.175781 3.234375 -21.25 C 3.128906 -21.332031 3.007812 -21.382812 2.875 -21.40625 C 2.8125 -21.40625 2.742188 -21.410156 2.671875 -21.421875 C 2.597656 -21.429688 2.53125 -21.4375 2.46875 -21.4375 C 2.425781 -21.457031 2.382812 -21.46875 2.34375 -21.46875 C 2.300781 -21.46875 2.257812 -21.476562 2.21875 -21.5 C 2.175781 -21.519531 2.128906 -21.539062 2.078125 -21.5625 C 2.023438 -21.582031 1.976562 -21.601562 1.9375 -21.625 C 1.84375 -21.664062 1.820312 -21.75 1.875 -21.875 C 1.9375 -21.976562 2.039062 -22.050781 2.1875 -22.09375 C 2.25 -22.113281 2.34375 -22.125 2.46875 -22.125 C 2.632812 -22.125 2.796875 -22.128906 2.953125 -22.140625 C 3.117188 -22.148438 3.273438 -22.15625 3.421875 -22.15625 C 4.140625 -22.15625 4.84375 -22.15625 5.53125 -22.15625 C 6.226562 -22.15625 6.9375 -22.15625 7.65625 -22.15625 C 7.65625 -22.15625 7.65625 -22.144531 7.65625 -22.125 Z M 8.171875 -15.1875 C 8.171875 -14.4375 8.171875 -13.675781 8.171875 -12.90625 C 8.171875 -12.132812 8.179688 -11.359375 8.203125 -10.578125 C 8.203125 -10.554688 8.203125 -10.53125 8.203125 -10.5 C 8.203125 -10.46875 8.203125 -10.429688 8.203125 -10.390625 C 8.203125 -10.367188 8.203125 -10.347656 8.203125 -10.328125 C 8.203125 -10.316406 8.203125 -10.300781 8.203125 -10.28125 C 8.203125 -10.238281 8.226562 -10.1875 8.28125 -10.125 C 8.332031 -10.0625 8.390625 -10.039062 8.453125 -10.0625 C 8.554688 -10.082031 8.664062 -10.097656 8.78125 -10.109375 C 8.894531 -10.117188 9.003906 -10.132812 9.109375 -10.15625 C 9.222656 -10.15625 9.335938 -10.15625 9.453125 -10.15625 C 9.566406 -10.15625 9.675781 -10.15625 9.78125 -10.15625 C 10.09375 -10.175781 10.390625 -10.234375 10.671875 -10.328125 C 10.960938 -10.429688 11.242188 -10.554688 11.515625 -10.703125 C 11.585938 -10.742188 11.648438 -10.78125 11.703125 -10.8125 C 11.753906 -10.84375 11.800781 -10.867188 11.84375 -10.890625 C 12.113281 -11.035156 12.351562 -11.207031 12.5625 -11.40625 C 12.78125 -11.613281 12.960938 -11.832031 13.109375 -12.0625 C 13.335938 -12.351562 13.539062 -12.660156 13.71875 -12.984375 C 13.894531 -13.316406 14.0625 -13.648438 14.21875 -13.984375 C 14.320312 -14.222656 14.414062 -14.460938 14.5 -14.703125 C 14.582031 -14.941406 14.613281 -15.203125 14.59375 -15.484375 C 14.59375 -15.546875 14.613281 -15.640625 14.65625 -15.765625 C 14.71875 -16.160156 14.707031 -16.539062 14.625 -16.90625 C 14.601562 -16.945312 14.59375 -17.007812 14.59375 -17.09375 C 14.59375 -17.320312 14.554688 -17.539062 14.484375 -17.75 C 14.410156 -17.96875 14.332031 -18.179688 14.25 -18.390625 C 14.1875 -18.515625 14.117188 -18.640625 14.046875 -18.765625 C 13.984375 -18.898438 13.921875 -19.03125 13.859375 -19.15625 C 13.609375 -19.53125 13.328125 -19.878906 13.015625 -20.203125 C 12.953125 -20.242188 12.890625 -20.28125 12.828125 -20.3125 C 12.773438 -20.34375 12.71875 -20.367188 12.65625 -20.390625 C 12.257812 -20.554688 11.867188 -20.679688 11.484375 -20.765625 C 11.441406 -20.785156 11.394531 -20.796875 11.34375 -20.796875 C 11.289062 -20.796875 11.242188 -20.804688 11.203125 -20.828125 C 10.503906 -20.867188 9.796875 -20.867188 9.078125 -20.828125 C 9.035156 -20.828125 8.988281 -20.820312 8.9375 -20.8125 C 8.882812 -20.800781 8.835938 -20.796875 8.796875 -20.796875 C 8.484375 -20.773438 8.304688 -20.585938 8.265625 -20.234375 C 8.242188 -20.191406 8.234375 -20.125 8.234375 -20.03125 C 8.210938 -19.570312 8.195312 -19.109375 8.1875 -18.640625 C 8.175781 -18.179688 8.171875 -17.707031 8.171875 -17.21875 C 8.171875 -16.882812 8.171875 -16.550781 8.171875 -16.21875 C 8.171875 -15.894531 8.171875 -15.550781 8.171875 -15.1875 Z M 8.171875 -15.1875 "/></g></g></g></g><g clip-path="url(#163be31326)"><g fill="#000000" fill-opacity="1"><g transform="translate(26.889682, 23.067873)"><g><path d="M 7.921875 -9.5625 C 7.941406 -8.925781 7.945312 -8.21875 7.9375 -7.4375 C 7.925781 -6.65625 7.90625 -5.863281 7.875 -5.0625 C 7.851562 -4.507812 7.847656 -3.945312 7.859375 -3.375 C 7.867188 -2.8125 7.875 -2.253906 7.875 -1.703125 C 7.875 -1.679688 7.875 -1.65625 7.875 -1.625 C 7.875 -1.59375 7.875 -1.554688 7.875 -1.515625 C 7.90625 -1.390625 7.972656 -1.273438 8.078125 -1.171875 C 8.203125 -1.066406 8.335938 -0.976562 8.484375 -0.90625 C 8.628906 -0.832031 8.773438 -0.773438 8.921875 -0.734375 C 9.078125 -0.691406 9.234375 -0.644531 9.390625 -0.59375 C 9.546875 -0.550781 9.695312 -0.519531 9.84375 -0.5 C 9.863281 -0.5 9.878906 -0.492188 9.890625 -0.484375 C 9.898438 -0.472656 9.914062 -0.46875 9.9375 -0.46875 C 10.019531 -0.40625 10.070312 -0.320312 10.09375 -0.21875 C 10.113281 -0.195312 10.101562 -0.160156 10.0625 -0.109375 C 10.019531 -0.0546875 9.976562 -0.0195312 9.9375 0 C 9.914062 0 9.898438 0.00390625 9.890625 0.015625 C 9.878906 0.0234375 9.863281 0.03125 9.84375 0.03125 C 9.800781 0.03125 9.753906 0.0351562 9.703125 0.046875 C 9.648438 0.0546875 9.601562 0.0625 9.5625 0.0625 C 9.414062 0.0625 9.269531 0.0625 9.125 0.0625 C 8.988281 0.0625 8.847656 0.0625 8.703125 0.0625 C 8.148438 0.0625 7.597656 0.0625 7.046875 0.0625 C 6.503906 0.0625 5.957031 0.0625 5.40625 0.0625 C 5.28125 0.0625 5.15625 0.0625 5.03125 0.0625 C 4.90625 0.0625 4.78125 0.0820312 4.65625 0.125 C 4.570312 0.144531 4.476562 0.160156 4.375 0.171875 C 4.28125 0.179688 4.179688 0.1875 4.078125 0.1875 C 3.578125 0.1875 3.078125 0.1875 2.578125 0.1875 C 2.085938 0.1875 1.585938 0.1875 1.078125 0.1875 C 1.035156 0.1875 0.988281 0.179688 0.9375 0.171875 C 0.882812 0.160156 0.835938 0.15625 0.796875 0.15625 C 0.640625 0.113281 0.5625 0.03125 0.5625 -0.09375 C 0.5625 -0.175781 0.597656 -0.226562 0.671875 -0.25 C 1.148438 -0.476562 1.632812 -0.640625 2.125 -0.734375 C 2.351562 -0.796875 2.582031 -0.898438 2.8125 -1.046875 C 2.9375 -1.128906 3.007812 -1.234375 3.03125 -1.359375 C 3.125 -1.648438 3.179688 -1.9375 3.203125 -2.21875 C 3.222656 -2.507812 3.242188 -2.796875 3.265625 -3.078125 C 3.304688 -4.441406 3.316406 -5.8125 3.296875 -7.1875 C 3.273438 -8.5625 3.273438 -9.921875 3.296875 -11.265625 C 3.296875 -11.523438 3.296875 -11.785156 3.296875 -12.046875 C 3.296875 -12.304688 3.296875 -12.566406 3.296875 -12.828125 C 3.296875 -12.910156 3.296875 -12.988281 3.296875 -13.0625 C 3.296875 -13.132812 3.304688 -13.210938 3.328125 -13.296875 C 3.367188 -13.503906 3.382812 -13.710938 3.375 -13.921875 C 3.363281 -14.140625 3.359375 -14.351562 3.359375 -14.5625 C 3.398438 -15.175781 3.398438 -15.773438 3.359375 -16.359375 C 3.359375 -16.597656 3.359375 -16.832031 3.359375 -17.0625 C 3.359375 -17.289062 3.347656 -17.515625 3.328125 -17.734375 C 3.304688 -17.941406 3.296875 -18.148438 3.296875 -18.359375 C 3.296875 -18.566406 3.296875 -18.78125 3.296875 -19 C 3.296875 -19.25 3.296875 -19.5 3.296875 -19.75 C 3.296875 -20.007812 3.296875 -20.265625 3.296875 -20.515625 C 3.296875 -20.554688 3.289062 -20.59375 3.28125 -20.625 C 3.269531 -20.65625 3.265625 -20.679688 3.265625 -20.703125 C 3.265625 -20.910156 3.15625 -21.054688 2.9375 -21.140625 C 2.769531 -21.203125 2.601562 -21.253906 2.4375 -21.296875 C 2.269531 -21.347656 2.09375 -21.382812 1.90625 -21.40625 C 1.832031 -21.40625 1.765625 -21.410156 1.703125 -21.421875 C 1.640625 -21.429688 1.578125 -21.445312 1.515625 -21.46875 C 1.429688 -21.488281 1.347656 -21.53125 1.265625 -21.59375 C 1.203125 -21.613281 1.191406 -21.664062 1.234375 -21.75 C 1.335938 -21.9375 1.515625 -22.050781 1.765625 -22.09375 C 1.816406 -22.09375 1.867188 -22.09375 1.921875 -22.09375 C 1.972656 -22.09375 2.019531 -22.09375 2.0625 -22.09375 C 3.238281 -22.09375 4.421875 -22.09375 5.609375 -22.09375 C 6.804688 -22.09375 8.007812 -22.09375 9.21875 -22.09375 C 9.300781 -22.09375 9.378906 -22.09375 9.453125 -22.09375 C 9.523438 -22.09375 9.601562 -22.082031 9.6875 -22.0625 C 9.789062 -22.0625 9.90625 -22.019531 10.03125 -21.9375 C 10.050781 -21.914062 10.0625 -21.898438 10.0625 -21.890625 C 10.0625 -21.878906 10.070312 -21.863281 10.09375 -21.84375 C 10.15625 -21.738281 10.132812 -21.664062 10.03125 -21.625 C 9.90625 -21.582031 9.773438 -21.539062 9.640625 -21.5 C 9.503906 -21.457031 9.363281 -21.414062 9.21875 -21.375 C 9.039062 -21.320312 8.921875 -21.285156 8.859375 -21.265625 C 8.609375 -21.203125 8.398438 -21.054688 8.234375 -20.828125 C 8.128906 -20.722656 8.078125 -20.609375 8.078125 -20.484375 C 8.054688 -20.335938 8.046875 -20.191406 8.046875 -20.046875 C 8.046875 -19.910156 8.046875 -19.769531 8.046875 -19.625 C 8.023438 -19.476562 8.015625 -19.335938 8.015625 -19.203125 C 8.015625 -19.066406 7.992188 -18.921875 7.953125 -18.765625 C 7.929688 -18.617188 7.910156 -18.472656 7.890625 -18.328125 C 7.878906 -18.179688 7.875 -18.035156 7.875 -17.890625 C 7.875 -17.234375 7.875 -16.578125 7.875 -15.921875 C 7.875 -15.265625 7.890625 -14.597656 7.921875 -13.921875 C 7.921875 -13.773438 7.921875 -13.632812 7.921875 -13.5 C 7.921875 -13.363281 7.921875 -13.222656 7.921875 -13.078125 C 7.921875 -12.546875 7.921875 -12 7.921875 -11.4375 C 7.921875 -10.882812 7.921875 -10.257812 7.921875 -9.5625 Z M 7.921875 -9.5625 "/></g></g></g></g><g clip-path="url(#3f37bb5ffb)"><g fill="#000000" fill-opacity="1"><g transform="translate(44.078581, 23.067873)"><g><path d="M 7.53125 -22.125 C 8.25 -22.125 8.957031 -22.125 9.65625 -22.125 C 10.351562 -22.125 11.0625 -22.125 11.78125 -22.125 C 12.03125 -22.125 12.285156 -22.125 12.546875 -22.125 C 12.816406 -22.125 13.078125 -22.09375 13.328125 -22.03125 C 13.410156 -22.007812 13.488281 -22.003906 13.5625 -22.015625 C 13.632812 -22.023438 13.710938 -22.019531 13.796875 -22 C 13.992188 -22 14.1875 -21.988281 14.375 -21.96875 C 14.5625 -21.945312 14.75 -21.894531 14.9375 -21.8125 C 15.21875 -21.769531 15.476562 -21.691406 15.71875 -21.578125 C 15.957031 -21.460938 16.191406 -21.328125 16.421875 -21.171875 C 16.492188 -21.128906 16.5625 -21.082031 16.625 -21.03125 C 16.6875 -20.976562 16.75 -20.929688 16.8125 -20.890625 C 16.914062 -20.828125 17.007812 -20.757812 17.09375 -20.6875 C 17.175781 -20.613281 17.257812 -20.546875 17.34375 -20.484375 C 17.507812 -20.378906 17.65625 -20.253906 17.78125 -20.109375 C 17.914062 -19.972656 18.046875 -19.832031 18.171875 -19.6875 C 18.210938 -19.644531 18.25 -19.601562 18.28125 -19.5625 C 18.3125 -19.519531 18.335938 -19.476562 18.359375 -19.4375 C 18.441406 -19.3125 18.523438 -19.175781 18.609375 -19.03125 C 18.691406 -18.894531 18.773438 -18.765625 18.859375 -18.640625 C 18.953125 -18.492188 19.03125 -18.347656 19.09375 -18.203125 C 19.15625 -18.054688 19.207031 -17.90625 19.25 -17.75 C 19.289062 -17.601562 19.3125 -17.445312 19.3125 -17.28125 C 19.3125 -17.03125 19.316406 -16.78125 19.328125 -16.53125 C 19.335938 -16.289062 19.34375 -16.054688 19.34375 -15.828125 C 19.320312 -15.578125 19.304688 -15.394531 19.296875 -15.28125 C 19.285156 -15.175781 19.226562 -14.976562 19.125 -14.6875 C 19.101562 -14.601562 19.078125 -14.53125 19.046875 -14.46875 C 19.015625 -14.40625 18.976562 -14.332031 18.9375 -14.25 C 18.84375 -14.050781 18.726562 -13.859375 18.59375 -13.671875 C 18.457031 -13.484375 18.328125 -13.296875 18.203125 -13.109375 C 18.160156 -13.046875 18.078125 -12.953125 17.953125 -12.828125 C 17.847656 -12.710938 17.726562 -12.609375 17.59375 -12.515625 C 17.46875 -12.421875 17.34375 -12.320312 17.21875 -12.21875 C 17.007812 -12.070312 16.804688 -11.9375 16.609375 -11.8125 C 16.421875 -11.6875 16.222656 -11.546875 16.015625 -11.390625 C 15.847656 -11.285156 15.679688 -11.203125 15.515625 -11.140625 C 15.347656 -11.035156 15.175781 -10.929688 15 -10.828125 C 14.832031 -10.722656 14.6875 -10.617188 14.5625 -10.515625 C 14.5 -10.453125 14.476562 -10.382812 14.5 -10.3125 C 14.5 -10.269531 14.519531 -10.207031 14.5625 -10.125 C 14.664062 -10 14.753906 -9.867188 14.828125 -9.734375 C 14.898438 -9.597656 14.976562 -9.46875 15.0625 -9.34375 C 15.28125 -9.019531 15.488281 -8.703125 15.6875 -8.390625 C 15.882812 -8.078125 16.085938 -7.769531 16.296875 -7.46875 C 16.492188 -7.21875 16.675781 -6.953125 16.84375 -6.671875 C 17.007812 -6.398438 17.175781 -6.128906 17.34375 -5.859375 C 17.40625 -5.773438 17.46875 -5.679688 17.53125 -5.578125 C 17.59375 -5.484375 17.660156 -5.394531 17.734375 -5.3125 C 17.816406 -5.1875 17.894531 -5.0625 17.96875 -4.9375 C 18.039062 -4.8125 18.109375 -4.6875 18.171875 -4.5625 C 18.253906 -4.394531 18.347656 -4.226562 18.453125 -4.0625 C 18.554688 -3.90625 18.648438 -3.742188 18.734375 -3.578125 C 18.816406 -3.472656 18.890625 -3.363281 18.953125 -3.25 C 19.023438 -3.132812 19.101562 -3.019531 19.1875 -2.90625 C 19.289062 -2.757812 19.382812 -2.613281 19.46875 -2.46875 C 19.550781 -2.320312 19.632812 -2.175781 19.71875 -2.03125 C 19.78125 -1.945312 19.84375 -1.863281 19.90625 -1.78125 C 19.96875 -1.707031 20.019531 -1.628906 20.0625 -1.546875 C 20.257812 -1.316406 20.503906 -1.171875 20.796875 -1.109375 C 20.921875 -1.085938 21.039062 -1.054688 21.15625 -1.015625 C 21.28125 -0.972656 21.414062 -0.941406 21.5625 -0.921875 C 21.6875 -0.898438 21.804688 -0.867188 21.921875 -0.828125 C 22.035156 -0.785156 22.15625 -0.742188 22.28125 -0.703125 C 22.320312 -0.679688 22.359375 -0.644531 22.390625 -0.59375 C 22.421875 -0.550781 22.445312 -0.507812 22.46875 -0.46875 C 22.46875 -0.46875 22.46875 -0.414062 22.46875 -0.3125 C 22.382812 -0.125 22.257812 -0.03125 22.09375 -0.03125 C 22.070312 -0.03125 22.046875 -0.0234375 22.015625 -0.015625 C 21.984375 -0.00390625 21.945312 0 21.90625 0 C 21.125 0 20.34375 0 19.5625 0 C 18.78125 0 17.988281 0.0078125 17.1875 0.03125 C 16.832031 0.03125 16.460938 0.0351562 16.078125 0.046875 C 15.703125 0.0546875 15.332031 0.0625 14.96875 0.0625 C 14.800781 0.0625 14.628906 0.0625 14.453125 0.0625 C 14.273438 0.0625 14.097656 0.0625 13.921875 0.0625 C 13.835938 0.0625 13.742188 0.03125 13.640625 -0.03125 C 13.492188 -0.132812 13.460938 -0.269531 13.546875 -0.4375 C 13.566406 -0.457031 13.578125 -0.472656 13.578125 -0.484375 C 13.578125 -0.492188 13.585938 -0.507812 13.609375 -0.53125 C 13.929688 -0.644531 14.25 -0.710938 14.5625 -0.734375 C 14.601562 -0.753906 14.648438 -0.765625 14.703125 -0.765625 C 14.753906 -0.765625 14.800781 -0.773438 14.84375 -0.796875 C 14.882812 -0.796875 14.925781 -0.804688 14.96875 -0.828125 C 15.007812 -0.847656 15.050781 -0.867188 15.09375 -0.890625 C 15.226562 -0.992188 15.257812 -1.109375 15.1875 -1.234375 C 15.144531 -1.335938 15.09375 -1.4375 15.03125 -1.53125 C 14.96875 -1.625 14.90625 -1.710938 14.84375 -1.796875 C 14.738281 -2.015625 14.628906 -2.226562 14.515625 -2.4375 C 14.398438 -2.644531 14.28125 -2.859375 14.15625 -3.078125 C 14.019531 -3.265625 13.882812 -3.445312 13.75 -3.625 C 13.613281 -3.800781 13.484375 -3.984375 13.359375 -4.171875 C 13.171875 -4.472656 12.96875 -4.773438 12.75 -5.078125 C 12.539062 -5.390625 12.34375 -5.703125 12.15625 -6.015625 C 12.132812 -6.054688 12.117188 -6.09375 12.109375 -6.125 C 12.097656 -6.15625 12.082031 -6.179688 12.0625 -6.203125 C 11.914062 -6.492188 11.738281 -6.789062 11.53125 -7.09375 C 11.332031 -7.40625 11.140625 -7.710938 10.953125 -8.015625 C 10.828125 -8.222656 10.703125 -8.421875 10.578125 -8.609375 C 10.453125 -8.796875 10.3125 -9 10.15625 -9.21875 C 10.132812 -9.257812 10.109375 -9.300781 10.078125 -9.34375 C 10.046875 -9.382812 10.007812 -9.414062 9.96875 -9.4375 C 9.925781 -9.476562 9.84375 -9.519531 9.71875 -9.5625 C 9.269531 -9.601562 8.859375 -9.5625 8.484375 -9.4375 C 8.378906 -9.394531 8.328125 -9.320312 8.328125 -9.21875 C 8.328125 -9.144531 8.320312 -9.078125 8.3125 -9.015625 C 8.300781 -8.953125 8.296875 -8.890625 8.296875 -8.828125 C 8.296875 -8.242188 8.289062 -7.65625 8.28125 -7.0625 C 8.269531 -6.46875 8.265625 -5.863281 8.265625 -5.25 C 8.222656 -4.132812 8.222656 -3.019531 8.265625 -1.90625 C 8.265625 -1.832031 8.265625 -1.757812 8.265625 -1.6875 C 8.265625 -1.613281 8.273438 -1.546875 8.296875 -1.484375 C 8.316406 -1.460938 8.335938 -1.429688 8.359375 -1.390625 C 8.378906 -1.347656 8.410156 -1.304688 8.453125 -1.265625 C 8.515625 -1.203125 8.566406 -1.160156 8.609375 -1.140625 C 8.710938 -1.097656 8.8125 -1.050781 8.90625 -1 C 9 -0.945312 9.101562 -0.898438 9.21875 -0.859375 C 9.28125 -0.816406 9.394531 -0.773438 9.5625 -0.734375 C 9.8125 -0.710938 10.0625 -0.644531 10.3125 -0.53125 C 10.363281 -0.507812 10.390625 -0.488281 10.390625 -0.46875 C 10.390625 -0.445312 10.398438 -0.414062 10.421875 -0.375 C 10.421875 -0.3125 10.398438 -0.257812 10.359375 -0.21875 C 10.203125 -0.09375 10.019531 -0.03125 9.8125 -0.03125 C 9.75 -0.0078125 9.65625 0 9.53125 0 C 8.28125 0 7.035156 0.00390625 5.796875 0.015625 C 4.566406 0.0234375 3.332031 0.03125 2.09375 0.03125 C 1.945312 0.03125 1.800781 0.0351562 1.65625 0.046875 C 1.519531 0.0546875 1.378906 0.0507812 1.234375 0.03125 C 1.128906 -0.0078125 1.054688 -0.0625 1.015625 -0.125 C 1.015625 -0.269531 1.054688 -0.351562 1.140625 -0.375 C 1.140625 -0.414062 1.160156 -0.4375 1.203125 -0.4375 C 1.222656 -0.457031 1.253906 -0.46875 1.296875 -0.46875 C 1.460938 -0.507812 1.617188 -0.5625 1.765625 -0.625 C 1.921875 -0.695312 2.070312 -0.742188 2.21875 -0.765625 C 2.34375 -0.804688 2.460938 -0.847656 2.578125 -0.890625 C 2.691406 -0.929688 2.8125 -0.960938 2.9375 -0.984375 C 3.113281 -1.046875 3.242188 -1.140625 3.328125 -1.265625 C 3.390625 -1.304688 3.441406 -1.390625 3.484375 -1.515625 C 3.523438 -1.660156 3.550781 -1.800781 3.5625 -1.9375 C 3.570312 -2.082031 3.585938 -2.226562 3.609375 -2.375 C 3.648438 -2.5 3.671875 -2.625 3.671875 -2.75 C 3.671875 -2.875 3.671875 -3.003906 3.671875 -3.140625 C 3.671875 -3.554688 3.675781 -3.957031 3.6875 -4.34375 C 3.695312 -4.738281 3.703125 -5.140625 3.703125 -5.546875 C 3.703125 -6.804688 3.703125 -8.070312 3.703125 -9.34375 C 3.703125 -10.625 3.703125 -11.898438 3.703125 -13.171875 C 3.703125 -13.398438 3.707031 -13.632812 3.71875 -13.875 C 3.726562 -14.125 3.753906 -14.363281 3.796875 -14.59375 C 3.816406 -14.675781 3.828125 -14.757812 3.828125 -14.84375 C 3.828125 -14.925781 3.828125 -15.007812 3.828125 -15.09375 C 3.828125 -15.375 3.828125 -15.644531 3.828125 -15.90625 C 3.828125 -16.164062 3.804688 -16.4375 3.765625 -16.71875 C 3.742188 -16.820312 3.734375 -16.921875 3.734375 -17.015625 C 3.734375 -17.109375 3.734375 -17.195312 3.734375 -17.28125 C 3.710938 -17.75 3.703125 -18.203125 3.703125 -18.640625 C 3.703125 -19.085938 3.703125 -19.539062 3.703125 -20 C 3.703125 -20.132812 3.695312 -20.265625 3.6875 -20.390625 C 3.675781 -20.515625 3.671875 -20.640625 3.671875 -20.765625 C 3.671875 -20.929688 3.585938 -21.054688 3.421875 -21.140625 C 3.097656 -21.273438 2.757812 -21.375 2.40625 -21.4375 C 2.15625 -21.4375 1.929688 -21.488281 1.734375 -21.59375 C 1.691406 -21.613281 1.664062 -21.648438 1.65625 -21.703125 C 1.644531 -21.753906 1.648438 -21.789062 1.671875 -21.8125 C 1.828125 -22.019531 2.019531 -22.125 2.25 -22.125 C 2.375 -22.125 2.5 -22.125 2.625 -22.125 C 2.75 -22.125 2.875 -22.125 3 -22.125 C 3.757812 -22.125 4.515625 -22.125 5.265625 -22.125 C 6.015625 -22.125 6.769531 -22.125 7.53125 -22.125 Z M 8.515625 -10.609375 C 8.597656 -10.609375 8.6875 -10.609375 8.78125 -10.609375 C 8.875 -10.609375 8.960938 -10.609375 9.046875 -10.609375 C 9.242188 -10.609375 9.4375 -10.640625 9.625 -10.703125 C 9.6875 -10.722656 9.75 -10.734375 9.8125 -10.734375 C 9.875 -10.734375 9.9375 -10.734375 10 -10.734375 C 10.101562 -10.753906 10.203125 -10.765625 10.296875 -10.765625 C 10.398438 -10.765625 10.503906 -10.773438 10.609375 -10.796875 C 10.898438 -10.796875 11.160156 -10.878906 11.390625 -11.046875 C 11.960938 -11.359375 12.460938 -11.757812 12.890625 -12.25 C 13.035156 -12.414062 13.164062 -12.585938 13.28125 -12.765625 C 13.394531 -12.953125 13.492188 -13.128906 13.578125 -13.296875 C 13.640625 -13.398438 13.691406 -13.515625 13.734375 -13.640625 C 13.773438 -13.765625 13.816406 -13.894531 13.859375 -14.03125 C 13.898438 -14.09375 13.925781 -14.160156 13.9375 -14.234375 C 13.945312 -14.304688 13.960938 -14.382812 13.984375 -14.46875 C 14.015625 -14.53125 14.035156 -14.59375 14.046875 -14.65625 C 14.054688 -14.71875 14.070312 -14.78125 14.09375 -14.84375 C 14.113281 -15.101562 14.132812 -15.359375 14.15625 -15.609375 C 14.175781 -15.859375 14.207031 -16.117188 14.25 -16.390625 C 14.289062 -16.609375 14.28125 -16.800781 14.21875 -16.96875 C 14.195312 -17.132812 14.179688 -17.296875 14.171875 -17.453125 C 14.160156 -17.617188 14.144531 -17.773438 14.125 -17.921875 C 14.101562 -18.128906 14.066406 -18.332031 14.015625 -18.53125 C 13.972656 -18.726562 13.921875 -18.9375 13.859375 -19.15625 C 13.816406 -19.320312 13.753906 -19.457031 13.671875 -19.5625 C 13.585938 -19.6875 13.503906 -19.804688 13.421875 -19.921875 C 13.335938 -20.046875 13.242188 -20.160156 13.140625 -20.265625 C 13.140625 -20.304688 13.117188 -20.328125 13.078125 -20.328125 C 12.835938 -20.492188 12.59375 -20.648438 12.34375 -20.796875 C 12.09375 -20.941406 11.816406 -21.023438 11.515625 -21.046875 C 11.367188 -21.109375 11.226562 -21.144531 11.09375 -21.15625 C 10.957031 -21.164062 10.816406 -21.171875 10.671875 -21.171875 C 10.585938 -21.171875 10.503906 -21.171875 10.421875 -21.171875 C 10.347656 -21.171875 10.269531 -21.171875 10.1875 -21.171875 C 9.851562 -21.171875 9.625 -21.164062 9.5 -21.15625 C 9.375 -21.144531 9.128906 -21.085938 8.765625 -20.984375 C 8.640625 -20.941406 8.554688 -20.859375 8.515625 -20.734375 C 8.492188 -20.648438 8.472656 -20.570312 8.453125 -20.5 C 8.429688 -20.425781 8.398438 -20.359375 8.359375 -20.296875 C 8.359375 -19.992188 8.351562 -19.703125 8.34375 -19.421875 C 8.332031 -19.140625 8.316406 -18.847656 8.296875 -18.546875 C 8.296875 -18.335938 8.289062 -18.125 8.28125 -17.90625 C 8.269531 -17.695312 8.265625 -17.488281 8.265625 -17.28125 C 8.285156 -16.269531 8.296875 -15.253906 8.296875 -14.234375 C 8.296875 -13.222656 8.296875 -12.210938 8.296875 -11.203125 C 8.296875 -11.140625 8.296875 -11.078125 8.296875 -11.015625 C 8.296875 -10.953125 8.304688 -10.890625 8.328125 -10.828125 C 8.328125 -10.765625 8.390625 -10.691406 8.515625 -10.609375 Z M 8.515625 -10.609375 "/></g></g></g></g><g clip-path="url(#38eb317d49)"><g fill="#000000" fill-opacity="1"><g transform="translate(73.643836, 23.067873)"><g><path d="M 5.40625 -17.21875 C 5.363281 -17.175781 5.34375 -17.125 5.34375 -17.0625 C 5.34375 -16.9375 5.335938 -16.8125 5.328125 -16.6875 C 5.316406 -16.5625 5.3125 -16.421875 5.3125 -16.265625 C 5.3125 -15.546875 5.316406 -14.8125 5.328125 -14.0625 C 5.335938 -13.320312 5.351562 -12.582031 5.375 -11.84375 C 5.375 -11.695312 5.375 -11.550781 5.375 -11.40625 C 5.375 -11.269531 5.375 -11.128906 5.375 -10.984375 C 5.375 -10.265625 5.375 -9.550781 5.375 -8.84375 C 5.375 -8.132812 5.375 -7.4375 5.375 -6.75 C 5.375 -5.988281 5.375 -5.226562 5.375 -4.46875 C 5.375 -3.707031 5.351562 -2.957031 5.3125 -2.21875 C 5.3125 -2.070312 5.3125 -1.921875 5.3125 -1.765625 C 5.3125 -1.617188 5.3125 -1.472656 5.3125 -1.328125 C 5.3125 -1.203125 5.378906 -1.097656 5.515625 -1.015625 C 5.617188 -0.953125 5.726562 -0.894531 5.84375 -0.84375 C 5.957031 -0.789062 6.078125 -0.742188 6.203125 -0.703125 C 6.410156 -0.660156 6.613281 -0.613281 6.8125 -0.5625 C 7.019531 -0.519531 7.226562 -0.5 7.4375 -0.5 C 7.519531 -0.5 7.597656 -0.5 7.671875 -0.5 C 7.742188 -0.5 7.828125 -0.488281 7.921875 -0.46875 C 8.046875 -0.445312 8.160156 -0.382812 8.265625 -0.28125 C 8.410156 -0.132812 8.390625 0 8.203125 0.125 C 8.117188 0.164062 8.066406 0.1875 8.046875 0.1875 C 7.929688 0.1875 7.8125 0.191406 7.6875 0.203125 C 7.5625 0.210938 7.445312 0.21875 7.34375 0.21875 C 7.132812 0.21875 6.925781 0.210938 6.71875 0.203125 C 6.519531 0.191406 6.316406 0.15625 6.109375 0.09375 C 6.003906 0.09375 5.894531 0.0859375 5.78125 0.078125 C 5.664062 0.0664062 5.550781 0.0625 5.4375 0.0625 C 5.082031 0.0625 4.726562 0.0625 4.375 0.0625 C 4.03125 0.0625 3.679688 0.0625 3.328125 0.0625 C 3.242188 0.0820312 3.160156 0.09375 3.078125 0.09375 C 3.003906 0.09375 2.925781 0.113281 2.84375 0.15625 C 2.78125 0.175781 2.71875 0.1875 2.65625 0.1875 C 2.59375 0.1875 2.53125 0.195312 2.46875 0.21875 C 2.28125 0.21875 2.082031 0.21875 1.875 0.21875 C 1.675781 0.21875 1.484375 0.207031 1.296875 0.1875 C 1.273438 0.1875 1.234375 0.15625 1.171875 0.09375 C 1.128906 0.0507812 1.128906 -0.0078125 1.171875 -0.09375 C 1.234375 -0.195312 1.304688 -0.257812 1.390625 -0.28125 C 1.515625 -0.320312 1.609375 -0.34375 1.671875 -0.34375 C 1.867188 -0.34375 2.0625 -0.367188 2.25 -0.421875 C 2.4375 -0.472656 2.625 -0.519531 2.8125 -0.5625 C 2.894531 -0.582031 2.984375 -0.613281 3.078125 -0.65625 C 3.179688 -0.707031 3.273438 -0.742188 3.359375 -0.765625 C 3.523438 -0.847656 3.617188 -0.972656 3.640625 -1.140625 C 3.679688 -1.410156 3.71875 -1.675781 3.75 -1.9375 C 3.78125 -2.207031 3.796875 -2.476562 3.796875 -2.75 C 3.796875 -3.007812 3.796875 -3.269531 3.796875 -3.53125 C 3.796875 -3.789062 3.796875 -4.050781 3.796875 -4.3125 C 3.816406 -5.300781 3.820312 -6.285156 3.8125 -7.265625 C 3.800781 -8.242188 3.785156 -9.21875 3.765625 -10.1875 C 3.765625 -10.300781 3.765625 -10.40625 3.765625 -10.5 C 3.765625 -10.59375 3.753906 -10.679688 3.734375 -10.765625 C 3.710938 -10.992188 3.695312 -11.21875 3.6875 -11.4375 C 3.675781 -11.664062 3.671875 -11.894531 3.671875 -12.125 C 3.648438 -12.5 3.632812 -12.875 3.625 -13.25 C 3.613281 -13.632812 3.597656 -14.03125 3.578125 -14.4375 C 3.578125 -14.5625 3.566406 -14.65625 3.546875 -14.71875 C 3.484375 -15.082031 3.453125 -15.4375 3.453125 -15.78125 C 3.453125 -16.125 3.441406 -16.476562 3.421875 -16.84375 C 3.398438 -17.050781 3.382812 -17.253906 3.375 -17.453125 C 3.363281 -17.660156 3.335938 -17.867188 3.296875 -18.078125 C 3.273438 -18.179688 3.269531 -18.28125 3.28125 -18.375 C 3.289062 -18.46875 3.296875 -18.554688 3.296875 -18.640625 C 3.296875 -18.984375 3.296875 -19.3125 3.296875 -19.625 C 3.296875 -19.945312 3.296875 -20.265625 3.296875 -20.578125 C 3.296875 -20.617188 3.296875 -20.664062 3.296875 -20.71875 C 3.296875 -20.769531 3.296875 -20.816406 3.296875 -20.859375 C 3.296875 -20.898438 3.265625 -20.957031 3.203125 -21.03125 C 3.140625 -21.101562 3.082031 -21.140625 3.03125 -21.140625 C 2.90625 -21.179688 2.8125 -21.203125 2.75 -21.203125 C 2.5625 -21.222656 2.375 -21.234375 2.1875 -21.234375 C 2 -21.234375 1.804688 -21.234375 1.609375 -21.234375 C 1.503906 -21.234375 1.390625 -21.28125 1.265625 -21.375 C 1.160156 -21.476562 1.160156 -21.5625 1.265625 -21.625 C 1.265625 -21.664062 1.285156 -21.6875 1.328125 -21.6875 C 1.367188 -21.726562 1.421875 -21.757812 1.484375 -21.78125 C 1.546875 -21.800781 1.609375 -21.820312 1.671875 -21.84375 C 1.847656 -21.90625 2.007812 -21.9375 2.15625 -21.9375 C 2.257812 -21.957031 2.359375 -21.96875 2.453125 -21.96875 C 2.546875 -21.96875 2.632812 -21.976562 2.71875 -22 C 2.863281 -22 3.003906 -22.003906 3.140625 -22.015625 C 3.285156 -22.023438 3.429688 -22.039062 3.578125 -22.0625 C 3.742188 -22.101562 3.914062 -22.128906 4.09375 -22.140625 C 4.28125 -22.148438 4.46875 -22.15625 4.65625 -22.15625 C 5.050781 -22.15625 5.445312 -22.15625 5.84375 -22.15625 C 6.25 -22.15625 6.65625 -22.15625 7.0625 -22.15625 C 7.226562 -22.15625 7.390625 -22.148438 7.546875 -22.140625 C 7.703125 -22.128906 7.859375 -22.125 8.015625 -22.125 C 8.078125 -22.125 8.171875 -22.101562 8.296875 -22.0625 C 8.484375 -22.019531 8.609375 -21.9375 8.671875 -21.8125 C 8.710938 -21.769531 8.738281 -21.726562 8.75 -21.6875 C 8.757812 -21.644531 8.773438 -21.601562 8.796875 -21.5625 C 8.859375 -21.414062 8.921875 -21.273438 8.984375 -21.140625 C 9.046875 -21.015625 9.113281 -20.890625 9.1875 -20.765625 C 9.351562 -20.410156 9.515625 -20.039062 9.671875 -19.65625 C 9.828125 -19.28125 9.988281 -18.910156 10.15625 -18.546875 C 10.195312 -18.441406 10.242188 -18.328125 10.296875 -18.203125 C 10.359375 -18.078125 10.421875 -17.960938 10.484375 -17.859375 C 10.648438 -17.492188 10.828125 -17.128906 11.015625 -16.765625 C 11.203125 -16.410156 11.378906 -16.054688 11.546875 -15.703125 C 11.660156 -15.535156 11.757812 -15.351562 11.84375 -15.15625 C 11.925781 -14.96875 12.007812 -14.769531 12.09375 -14.5625 C 12.15625 -14.414062 12.21875 -14.269531 12.28125 -14.125 C 12.34375 -13.988281 12.414062 -13.847656 12.5 -13.703125 C 12.601562 -13.472656 12.710938 -13.238281 12.828125 -13 C 12.953125 -12.769531 13.078125 -12.539062 13.203125 -12.3125 C 13.242188 -12.25 13.28125 -12.179688 13.3125 -12.109375 C 13.34375 -12.035156 13.367188 -11.96875 13.390625 -11.90625 C 13.492188 -11.695312 13.597656 -11.488281 13.703125 -11.28125 C 13.804688 -11.082031 13.898438 -10.878906 13.984375 -10.671875 C 14.078125 -10.484375 14.171875 -10.289062 14.265625 -10.09375 C 14.359375 -9.90625 14.445312 -9.726562 14.53125 -9.5625 C 14.570312 -9.5 14.601562 -9.4375 14.625 -9.375 C 14.644531 -9.3125 14.664062 -9.25 14.6875 -9.1875 C 14.726562 -9.113281 14.769531 -9.078125 14.8125 -9.078125 C 14.875 -9.035156 14.925781 -9.070312 14.96875 -9.1875 C 15.007812 -9.289062 15.050781 -9.394531 15.09375 -9.5 C 15.132812 -9.601562 15.179688 -9.695312 15.234375 -9.78125 C 15.398438 -10.226562 15.570312 -10.664062 15.75 -11.09375 C 15.925781 -11.53125 16.097656 -11.957031 16.265625 -12.375 C 16.441406 -12.757812 16.609375 -13.144531 16.765625 -13.53125 C 16.921875 -13.925781 17.070312 -14.3125 17.21875 -14.6875 C 17.257812 -14.789062 17.300781 -14.898438 17.34375 -15.015625 C 17.382812 -15.128906 17.414062 -15.234375 17.4375 -15.328125 C 17.59375 -15.765625 17.75 -16.191406 17.90625 -16.609375 C 18.0625 -17.035156 18.222656 -17.453125 18.390625 -17.859375 C 18.492188 -18.085938 18.582031 -18.3125 18.65625 -18.53125 C 18.726562 -18.75 18.8125 -18.976562 18.90625 -19.21875 C 19.132812 -19.894531 19.382812 -20.515625 19.65625 -21.078125 C 19.695312 -21.179688 19.742188 -21.269531 19.796875 -21.34375 C 19.847656 -21.425781 19.894531 -21.507812 19.9375 -21.59375 C 19.957031 -21.632812 19.988281 -21.675781 20.03125 -21.71875 C 20.082031 -21.757812 20.117188 -21.789062 20.140625 -21.8125 C 20.222656 -21.832031 20.304688 -21.875 20.390625 -21.9375 C 20.410156 -21.9375 20.425781 -21.9375 20.4375 -21.9375 C 20.445312 -21.9375 20.460938 -21.9375 20.484375 -21.9375 C 20.816406 -22 21.066406 -22.039062 21.234375 -22.0625 C 21.410156 -22.082031 21.582031 -22.09375 21.75 -22.09375 C 21.914062 -22.09375 22.164062 -22.09375 22.5 -22.09375 C 23.113281 -22.09375 23.726562 -22.09375 24.34375 -22.09375 C 24.957031 -22.09375 25.570312 -22.09375 26.1875 -22.09375 C 26.25 -22.09375 26.3125 -22.09375 26.375 -22.09375 C 26.4375 -22.09375 26.5 -22.082031 26.5625 -22.0625 C 26.6875 -22.019531 26.75 -21.925781 26.75 -21.78125 C 26.75 -21.695312 26.71875 -21.644531 26.65625 -21.625 C 26.3125 -21.476562 25.972656 -21.394531 25.640625 -21.375 C 25.554688 -21.351562 25.484375 -21.316406 25.421875 -21.265625 C 25.359375 -21.222656 25.296875 -21.179688 25.234375 -21.140625 C 24.992188 -20.992188 24.863281 -20.816406 24.84375 -20.609375 C 24.738281 -20.222656 24.6875 -19.875 24.6875 -19.5625 C 24.664062 -19.351562 24.65625 -19.128906 24.65625 -18.890625 C 24.65625 -18.660156 24.65625 -18.429688 24.65625 -18.203125 C 24.65625 -16.765625 24.648438 -15.316406 24.640625 -13.859375 C 24.628906 -12.410156 24.632812 -10.96875 24.65625 -9.53125 C 24.65625 -8.875 24.65625 -8.226562 24.65625 -7.59375 C 24.65625 -6.957031 24.644531 -6.316406 24.625 -5.671875 C 24.625 -5.265625 24.625 -4.847656 24.625 -4.421875 C 24.625 -4.003906 24.625 -3.585938 24.625 -3.171875 C 24.625 -2.972656 24.617188 -2.78125 24.609375 -2.59375 C 24.597656 -2.40625 24.570312 -2.207031 24.53125 -2 C 24.507812 -1.914062 24.515625 -1.820312 24.546875 -1.71875 C 24.578125 -1.625 24.601562 -1.535156 24.625 -1.453125 C 24.6875 -1.328125 24.757812 -1.222656 24.84375 -1.140625 C 24.90625 -1.117188 24.960938 -1.085938 25.015625 -1.046875 C 25.078125 -1.003906 25.140625 -0.972656 25.203125 -0.953125 C 25.390625 -0.847656 25.585938 -0.753906 25.796875 -0.671875 C 26.003906 -0.597656 26.226562 -0.550781 26.46875 -0.53125 C 26.507812 -0.53125 26.546875 -0.519531 26.578125 -0.5 C 26.609375 -0.476562 26.632812 -0.46875 26.65625 -0.46875 C 26.675781 -0.445312 26.703125 -0.410156 26.734375 -0.359375 C 26.765625 -0.304688 26.78125 -0.257812 26.78125 -0.21875 C 26.78125 -0.132812 26.726562 -0.0625 26.625 0 C 26.601562 0 26.578125 0.00390625 26.546875 0.015625 C 26.515625 0.0234375 26.476562 0.03125 26.4375 0.03125 C 26.332031 0.0507812 26.21875 0.0625 26.09375 0.0625 C 25.976562 0.0625 25.867188 0.0625 25.765625 0.0625 C 25.367188 0.0820312 24.96875 0.09375 24.5625 0.09375 C 24.164062 0.09375 23.765625 0.09375 23.359375 0.09375 C 23.273438 0.09375 23.179688 0.09375 23.078125 0.09375 C 22.972656 0.09375 22.867188 0.101562 22.765625 0.125 C 22.484375 0.144531 22.210938 0.160156 21.953125 0.171875 C 21.691406 0.179688 21.421875 0.1875 21.140625 0.1875 C 20.597656 0.1875 20.050781 0.1875 19.5 0.1875 C 18.945312 0.1875 18.398438 0.195312 17.859375 0.21875 C 17.796875 0.21875 17.695312 0.195312 17.5625 0.15625 C 17.539062 0.15625 17.507812 0.125 17.46875 0.0625 C 17.425781 0 17.40625 -0.0390625 17.40625 -0.0625 C 17.445312 -0.144531 17.476562 -0.195312 17.5 -0.21875 C 17.519531 -0.257812 17.578125 -0.300781 17.671875 -0.34375 C 17.835938 -0.425781 18.015625 -0.488281 18.203125 -0.53125 C 18.390625 -0.570312 18.566406 -0.628906 18.734375 -0.703125 C 18.910156 -0.722656 19.070312 -0.769531 19.21875 -0.84375 C 19.363281 -0.914062 19.5 -0.992188 19.625 -1.078125 C 19.644531 -1.097656 19.660156 -1.113281 19.671875 -1.125 C 19.679688 -1.132812 19.6875 -1.140625 19.6875 -1.140625 C 19.769531 -1.222656 19.820312 -1.304688 19.84375 -1.390625 C 19.863281 -1.492188 19.882812 -1.59375 19.90625 -1.6875 C 19.925781 -1.789062 19.945312 -1.882812 19.96875 -1.96875 C 19.988281 -2.175781 20.003906 -2.378906 20.015625 -2.578125 C 20.023438 -2.773438 20.03125 -2.984375 20.03125 -3.203125 C 20.03125 -3.804688 20.035156 -4.414062 20.046875 -5.03125 C 20.054688 -5.644531 20.0625 -6.257812 20.0625 -6.875 C 20.0625 -7.019531 20.066406 -7.160156 20.078125 -7.296875 C 20.097656 -7.429688 20.117188 -7.570312 20.140625 -7.71875 C 20.140625 -7.820312 20.144531 -7.9375 20.15625 -8.0625 C 20.164062 -8.195312 20.171875 -8.316406 20.171875 -8.421875 C 20.171875 -9.816406 20.171875 -11.207031 20.171875 -12.59375 C 20.171875 -13.988281 20.171875 -15.394531 20.171875 -16.8125 C 20.171875 -16.976562 20.175781 -17.148438 20.1875 -17.328125 C 20.195312 -17.503906 20.179688 -17.679688 20.140625 -17.859375 C 20.085938 -17.941406 20.039062 -17.984375 20 -17.984375 C 19.976562 -18.023438 19.945312 -18.023438 19.90625 -17.984375 C 19.863281 -17.984375 19.84375 -17.960938 19.84375 -17.921875 C 19.800781 -17.835938 19.757812 -17.75 19.71875 -17.65625 C 19.675781 -17.570312 19.632812 -17.488281 19.59375 -17.40625 C 19.382812 -16.945312 19.1875 -16.472656 19 -15.984375 C 18.820312 -15.503906 18.660156 -15.019531 18.515625 -14.53125 C 18.410156 -14.195312 18.300781 -13.859375 18.1875 -13.515625 C 18.070312 -13.179688 17.960938 -12.84375 17.859375 -12.5 C 17.859375 -12.414062 17.828125 -12.320312 17.765625 -12.21875 C 17.628906 -11.945312 17.515625 -11.664062 17.421875 -11.375 C 17.328125 -11.09375 17.226562 -10.804688 17.125 -10.515625 C 17.0625 -10.296875 16.992188 -10.082031 16.921875 -9.875 C 16.847656 -9.664062 16.78125 -9.457031 16.71875 -9.25 C 16.675781 -9.070312 16.625 -8.898438 16.5625 -8.734375 C 16.5 -8.566406 16.441406 -8.398438 16.390625 -8.234375 C 16.285156 -7.828125 16.160156 -7.457031 16.015625 -7.125 C 15.929688 -6.976562 15.851562 -6.820312 15.78125 -6.65625 C 15.707031 -6.5 15.640625 -6.335938 15.578125 -6.171875 C 15.472656 -5.898438 15.359375 -5.617188 15.234375 -5.328125 C 15.117188 -5.046875 15 -4.757812 14.875 -4.46875 C 14.789062 -4.25 14.710938 -4.039062 14.640625 -3.84375 C 14.566406 -3.644531 14.5 -3.429688 14.4375 -3.203125 C 14.375 -3.046875 14.316406 -2.878906 14.265625 -2.703125 C 14.210938 -2.523438 14.15625 -2.351562 14.09375 -2.1875 C 14 -1.976562 13.910156 -1.757812 13.828125 -1.53125 C 13.742188 -1.3125 13.660156 -1.085938 13.578125 -0.859375 C 13.554688 -0.796875 13.53125 -0.734375 13.5 -0.671875 C 13.46875 -0.617188 13.429688 -0.5625 13.390625 -0.5 C 13.328125 -0.4375 13.253906 -0.40625 13.171875 -0.40625 C 13.085938 -0.40625 13.023438 -0.445312 12.984375 -0.53125 C 12.960938 -0.550781 12.953125 -0.5625 12.953125 -0.5625 C 12.953125 -0.5625 12.941406 -0.570312 12.921875 -0.59375 C 12.878906 -0.726562 12.835938 -0.816406 12.796875 -0.859375 C 12.554688 -1.421875 12.300781 -1.945312 12.03125 -2.4375 C 11.925781 -2.644531 11.84375 -2.84375 11.78125 -3.03125 C 11.71875 -3.25 11.632812 -3.453125 11.53125 -3.640625 C 11.4375 -3.828125 11.359375 -4.015625 11.296875 -4.203125 C 11.148438 -4.460938 11.03125 -4.726562 10.9375 -5 C 10.84375 -5.269531 10.742188 -5.546875 10.640625 -5.828125 C 10.554688 -6.117188 10.445312 -6.410156 10.3125 -6.703125 C 10.1875 -7.003906 10.070312 -7.3125 9.96875 -7.625 C 9.945312 -7.707031 9.90625 -7.789062 9.84375 -7.875 C 9.675781 -8.238281 9.53125 -8.597656 9.40625 -8.953125 C 9.28125 -9.316406 9.148438 -9.675781 9.015625 -10.03125 C 8.929688 -10.289062 8.835938 -10.546875 8.734375 -10.796875 C 8.628906 -11.046875 8.503906 -11.285156 8.359375 -11.515625 C 8.015625 -12.128906 7.726562 -12.742188 7.5 -13.359375 C 7.476562 -13.398438 7.457031 -13.445312 7.4375 -13.5 C 7.414062 -13.550781 7.394531 -13.585938 7.375 -13.609375 C 7.101562 -14.203125 6.816406 -14.78125 6.515625 -15.34375 C 6.222656 -15.914062 5.929688 -16.488281 5.640625 -17.0625 C 5.597656 -17.164062 5.519531 -17.21875 5.40625 -17.21875 Z M 5.40625 -17.21875 "/></g></g></g></g><g clip-path="url(#dcfc36f960)"><g fill="#000000" fill-opacity="1"><g transform="translate(107.893746, 23.067873)"><g><path d="M 3.140625 -0.984375 C 3.304688 -1.085938 3.429688 -1.191406 3.515625 -1.296875 C 3.660156 -1.441406 3.742188 -1.566406 3.765625 -1.671875 C 3.828125 -1.847656 3.882812 -2.007812 3.9375 -2.15625 C 3.988281 -2.300781 4.035156 -2.445312 4.078125 -2.59375 C 4.335938 -3.332031 4.585938 -4.082031 4.828125 -4.84375 C 5.066406 -5.601562 5.316406 -6.351562 5.578125 -7.09375 C 5.640625 -7.320312 5.710938 -7.53125 5.796875 -7.71875 C 5.835938 -7.851562 5.859375 -7.953125 5.859375 -8.015625 C 5.898438 -8.222656 5.953125 -8.421875 6.015625 -8.609375 C 6.078125 -8.796875 6.140625 -9 6.203125 -9.21875 C 6.265625 -9.425781 6.328125 -9.632812 6.390625 -9.84375 C 6.453125 -10.050781 6.515625 -10.265625 6.578125 -10.484375 C 6.617188 -10.648438 6.671875 -10.816406 6.734375 -10.984375 C 6.804688 -11.148438 6.851562 -11.328125 6.875 -11.515625 C 6.875 -11.566406 6.878906 -11.609375 6.890625 -11.640625 C 6.898438 -11.671875 6.90625 -11.695312 6.90625 -11.71875 C 7.070312 -12.175781 7.21875 -12.628906 7.34375 -13.078125 C 7.46875 -13.535156 7.59375 -14 7.71875 -14.46875 C 7.800781 -14.757812 7.890625 -15.035156 7.984375 -15.296875 C 8.085938 -15.566406 8.179688 -15.835938 8.265625 -16.109375 C 8.328125 -16.316406 8.390625 -16.515625 8.453125 -16.703125 C 8.515625 -16.898438 8.566406 -17.101562 8.609375 -17.3125 C 8.648438 -17.457031 8.6875 -17.597656 8.71875 -17.734375 C 8.75 -17.878906 8.773438 -18.023438 8.796875 -18.171875 C 8.859375 -18.296875 8.90625 -18.425781 8.9375 -18.5625 C 8.96875 -18.695312 9.003906 -18.84375 9.046875 -19 C 9.085938 -19.164062 9.128906 -19.320312 9.171875 -19.46875 C 9.222656 -19.613281 9.269531 -19.757812 9.3125 -19.90625 C 9.332031 -20.039062 9.351562 -20.171875 9.375 -20.296875 C 9.394531 -20.421875 9.40625 -20.546875 9.40625 -20.671875 C 9.40625 -20.710938 9.40625 -20.757812 9.40625 -20.8125 C 9.40625 -20.863281 9.40625 -20.921875 9.40625 -20.984375 C 9.363281 -21.191406 9.234375 -21.320312 9.015625 -21.375 C 8.867188 -21.375 8.726562 -21.375 8.59375 -21.375 C 8.457031 -21.375 8.316406 -21.375 8.171875 -21.375 C 8.085938 -21.375 7.988281 -21.375 7.875 -21.375 C 7.769531 -21.375 7.664062 -21.382812 7.5625 -21.40625 C 7.539062 -21.40625 7.5 -21.4375 7.4375 -21.5 C 7.351562 -21.582031 7.363281 -21.675781 7.46875 -21.78125 C 7.53125 -21.84375 7.570312 -21.875 7.59375 -21.875 C 7.632812 -21.894531 7.679688 -21.90625 7.734375 -21.90625 C 7.785156 -21.90625 7.832031 -21.914062 7.875 -21.9375 C 8.09375 -21.9375 8.296875 -21.941406 8.484375 -21.953125 C 8.671875 -21.960938 8.859375 -21.976562 9.046875 -22 C 9.140625 -22 9.222656 -22.003906 9.296875 -22.015625 C 9.367188 -22.023438 9.445312 -22.039062 9.53125 -22.0625 C 9.632812 -22.101562 9.742188 -22.125 9.859375 -22.125 C 9.972656 -22.125 10.082031 -22.125 10.1875 -22.125 C 10.488281 -22.125 10.785156 -22.117188 11.078125 -22.109375 C 11.367188 -22.097656 11.65625 -22.09375 11.9375 -22.09375 C 12.019531 -22.09375 12.097656 -22.09375 12.171875 -22.09375 C 12.242188 -22.09375 12.320312 -22.082031 12.40625 -22.0625 C 12.632812 -22.039062 12.859375 -22.023438 13.078125 -22.015625 C 13.304688 -22.003906 13.535156 -21.988281 13.765625 -21.96875 C 13.804688 -21.96875 13.851562 -21.96875 13.90625 -21.96875 C 13.957031 -21.96875 14.007812 -21.96875 14.0625 -21.96875 C 14.375 -21.90625 14.625 -21.71875 14.8125 -21.40625 C 14.875 -21.289062 14.925781 -21.160156 14.96875 -21.015625 C 15.007812 -20.867188 15.070312 -20.742188 15.15625 -20.640625 C 15.269531 -20.492188 15.351562 -20.332031 15.40625 -20.15625 C 15.457031 -19.988281 15.523438 -19.820312 15.609375 -19.65625 C 15.671875 -19.507812 15.734375 -19.367188 15.796875 -19.234375 C 15.859375 -19.097656 15.910156 -18.941406 15.953125 -18.765625 C 16.054688 -18.410156 16.179688 -18.046875 16.328125 -17.671875 C 16.484375 -17.304688 16.625 -16.945312 16.75 -16.59375 C 16.832031 -16.4375 16.882812 -16.285156 16.90625 -16.140625 C 16.988281 -15.929688 17.078125 -15.710938 17.171875 -15.484375 C 17.265625 -15.265625 17.351562 -15.039062 17.4375 -14.8125 C 17.65625 -14.375 17.835938 -13.925781 17.984375 -13.46875 C 18.128906 -13.019531 18.273438 -12.5625 18.421875 -12.09375 C 18.484375 -11.882812 18.546875 -11.671875 18.609375 -11.453125 C 18.671875 -11.242188 18.734375 -11.023438 18.796875 -10.796875 C 18.816406 -10.773438 18.828125 -10.742188 18.828125 -10.703125 C 18.898438 -10.554688 18.972656 -10.410156 19.046875 -10.265625 C 19.117188 -10.128906 19.175781 -9.976562 19.21875 -9.8125 C 19.257812 -9.664062 19.316406 -9.503906 19.390625 -9.328125 C 19.460938 -9.160156 19.53125 -8.992188 19.59375 -8.828125 C 19.65625 -8.679688 19.71875 -8.539062 19.78125 -8.40625 C 19.84375 -8.269531 19.914062 -8.128906 20 -7.984375 C 20.175781 -7.640625 20.332031 -7.296875 20.46875 -6.953125 C 20.601562 -6.617188 20.742188 -6.273438 20.890625 -5.921875 C 20.910156 -5.859375 20.9375 -5.789062 20.96875 -5.71875 C 21 -5.644531 21.023438 -5.5625 21.046875 -5.46875 C 21.210938 -5.132812 21.34375 -4.8125 21.4375 -4.5 C 21.5625 -4.050781 21.707031 -3.601562 21.875 -3.15625 C 22.039062 -2.71875 22.207031 -2.289062 22.375 -1.875 C 22.414062 -1.738281 22.445312 -1.648438 22.46875 -1.609375 C 22.625 -1.335938 22.816406 -1.160156 23.046875 -1.078125 C 23.148438 -1.054688 23.253906 -1.023438 23.359375 -0.984375 C 23.460938 -0.941406 23.566406 -0.910156 23.671875 -0.890625 C 23.804688 -0.890625 23.9375 -0.867188 24.0625 -0.828125 C 24.1875 -0.785156 24.300781 -0.742188 24.40625 -0.703125 C 24.488281 -0.679688 24.550781 -0.625 24.59375 -0.53125 C 24.632812 -0.445312 24.632812 -0.375 24.59375 -0.3125 C 24.507812 -0.0820312 24.375 0.03125 24.1875 0.03125 C 24.144531 0.03125 24.097656 0.03125 24.046875 0.03125 C 23.992188 0.03125 23.945312 0.03125 23.90625 0.03125 C 23.125 0.0507812 22.335938 0.0625 21.546875 0.0625 C 20.753906 0.0625 19.957031 0.0625 19.15625 0.0625 C 18.875 0.0820312 18.59375 0.09375 18.3125 0.09375 C 18.03125 0.09375 17.738281 0.113281 17.4375 0.15625 C 17.1875 0.175781 16.925781 0.191406 16.65625 0.203125 C 16.394531 0.210938 16.140625 0.207031 15.890625 0.1875 C 15.828125 0.144531 15.769531 0.113281 15.71875 0.09375 C 15.664062 0.0703125 15.617188 0.03125 15.578125 -0.03125 C 15.535156 -0.09375 15.523438 -0.179688 15.546875 -0.296875 C 15.566406 -0.410156 15.628906 -0.476562 15.734375 -0.5 C 15.773438 -0.5 15.8125 -0.503906 15.84375 -0.515625 C 15.875 -0.523438 15.898438 -0.53125 15.921875 -0.53125 C 16.109375 -0.550781 16.296875 -0.582031 16.484375 -0.625 C 16.679688 -0.675781 16.875 -0.710938 17.0625 -0.734375 C 17.164062 -0.753906 17.253906 -0.789062 17.328125 -0.84375 C 17.398438 -0.894531 17.476562 -0.941406 17.5625 -0.984375 C 17.601562 -1.023438 17.640625 -1.066406 17.671875 -1.109375 C 17.710938 -1.148438 17.742188 -1.191406 17.765625 -1.234375 C 17.804688 -1.316406 17.816406 -1.398438 17.796875 -1.484375 C 17.710938 -1.691406 17.632812 -1.898438 17.5625 -2.109375 C 17.5 -2.328125 17.425781 -2.539062 17.34375 -2.75 C 17.21875 -3.113281 17.125 -3.460938 17.0625 -3.796875 C 17.019531 -3.960938 16.988281 -4.078125 16.96875 -4.140625 C 16.863281 -4.503906 16.738281 -4.84375 16.59375 -5.15625 C 16.457031 -5.476562 16.335938 -5.804688 16.234375 -6.140625 C 16.171875 -6.347656 16.054688 -6.582031 15.890625 -6.84375 C 15.804688 -6.96875 15.671875 -7.03125 15.484375 -7.03125 C 15.460938 -7.03125 15.4375 -7.03125 15.40625 -7.03125 C 15.375 -7.03125 15.335938 -7.03125 15.296875 -7.03125 C 15.140625 -7.007812 14.988281 -6.992188 14.84375 -6.984375 C 14.695312 -6.972656 14.550781 -6.96875 14.40625 -6.96875 C 13.769531 -6.96875 13.128906 -6.957031 12.484375 -6.9375 C 11.835938 -6.914062 11.203125 -6.894531 10.578125 -6.875 C 10.492188 -6.875 10.394531 -6.875 10.28125 -6.875 C 10.175781 -6.875 10.070312 -6.851562 9.96875 -6.8125 C 9.507812 -6.75 9.035156 -6.71875 8.546875 -6.71875 C 8.335938 -6.71875 8.128906 -6.71875 7.921875 -6.71875 C 7.722656 -6.71875 7.507812 -6.691406 7.28125 -6.640625 C 7.21875 -6.640625 7.132812 -6.609375 7.03125 -6.546875 C 6.96875 -6.523438 6.925781 -6.484375 6.90625 -6.421875 C 6.863281 -6.316406 6.835938 -6.207031 6.828125 -6.09375 C 6.816406 -5.976562 6.789062 -5.867188 6.75 -5.765625 C 6.675781 -5.660156 6.625 -5.539062 6.59375 -5.40625 C 6.5625 -5.28125 6.523438 -5.15625 6.484375 -5.03125 C 6.460938 -4.925781 6.429688 -4.820312 6.390625 -4.71875 C 6.347656 -4.613281 6.304688 -4.507812 6.265625 -4.40625 C 6.242188 -4.25 6.210938 -4.109375 6.171875 -3.984375 C 6.128906 -3.859375 6.085938 -3.722656 6.046875 -3.578125 C 6.023438 -3.410156 5.988281 -3.234375 5.9375 -3.046875 C 5.882812 -2.867188 5.835938 -2.695312 5.796875 -2.53125 C 5.753906 -2.425781 5.726562 -2.316406 5.71875 -2.203125 C 5.707031 -2.085938 5.703125 -1.976562 5.703125 -1.875 C 5.703125 -1.59375 5.835938 -1.347656 6.109375 -1.140625 C 6.148438 -1.117188 6.191406 -1.097656 6.234375 -1.078125 C 6.273438 -1.054688 6.316406 -1.035156 6.359375 -1.015625 C 6.460938 -0.953125 6.578125 -0.910156 6.703125 -0.890625 C 6.835938 -0.867188 6.96875 -0.835938 7.09375 -0.796875 C 7.175781 -0.773438 7.253906 -0.757812 7.328125 -0.75 C 7.398438 -0.738281 7.476562 -0.722656 7.5625 -0.703125 C 7.6875 -0.703125 7.8125 -0.703125 7.9375 -0.703125 C 8.070312 -0.703125 8.203125 -0.703125 8.328125 -0.703125 C 8.390625 -0.679688 8.453125 -0.675781 8.515625 -0.6875 C 8.578125 -0.695312 8.640625 -0.691406 8.703125 -0.671875 C 8.929688 -0.597656 9.15625 -0.5625 9.375 -0.5625 C 9.601562 -0.5625 9.832031 -0.539062 10.0625 -0.5 C 10.144531 -0.5 10.21875 -0.445312 10.28125 -0.34375 C 10.332031 -0.300781 10.335938 -0.242188 10.296875 -0.171875 C 10.265625 -0.0976562 10.21875 -0.0507812 10.15625 -0.03125 C 10.132812 -0.03125 10.113281 -0.0234375 10.09375 -0.015625 C 10.070312 -0.00390625 10.039062 0 10 0 C 9.894531 0 9.78125 0.00390625 9.65625 0.015625 C 9.53125 0.0234375 9.414062 0.03125 9.3125 0.03125 C 8.019531 0.03125 6.734375 0.03125 5.453125 0.03125 C 4.179688 0.03125 2.898438 0.03125 1.609375 0.03125 C 1.484375 0.03125 1.351562 0.03125 1.21875 0.03125 C 1.082031 0.03125 0.953125 0.03125 0.828125 0.03125 C 0.804688 0.03125 0.78125 0.0234375 0.75 0.015625 C 0.71875 0.00390625 0.679688 0 0.640625 0 C 0.566406 -0.0195312 0.519531 -0.0625 0.5 -0.125 C 0.457031 -0.1875 0.476562 -0.238281 0.5625 -0.28125 C 0.695312 -0.40625 0.835938 -0.476562 0.984375 -0.5 C 1.085938 -0.519531 1.1875 -0.53125 1.28125 -0.53125 C 1.375 -0.53125 1.460938 -0.539062 1.546875 -0.5625 C 1.828125 -0.632812 2.097656 -0.703125 2.359375 -0.765625 C 2.617188 -0.828125 2.878906 -0.898438 3.140625 -0.984375 Z M 10.515625 -7.8125 C 10.910156 -7.8125 11.320312 -7.820312 11.75 -7.84375 C 12.1875 -7.863281 12.640625 -7.890625 13.109375 -7.921875 C 13.171875 -7.921875 13.234375 -7.921875 13.296875 -7.921875 C 13.359375 -7.921875 13.421875 -7.929688 13.484375 -7.953125 C 13.910156 -8.015625 14.320312 -8.046875 14.71875 -8.046875 C 14.820312 -8.046875 14.921875 -8.046875 15.015625 -8.046875 C 15.109375 -8.046875 15.203125 -8.046875 15.296875 -8.046875 C 15.421875 -8.085938 15.460938 -8.160156 15.421875 -8.265625 C 15.398438 -8.328125 15.375 -8.382812 15.34375 -8.4375 C 15.3125 -8.488281 15.273438 -8.546875 15.234375 -8.609375 C 15.097656 -8.898438 14.972656 -9.191406 14.859375 -9.484375 C 14.742188 -9.785156 14.644531 -10.085938 14.5625 -10.390625 C 14.539062 -10.492188 14.515625 -10.585938 14.484375 -10.671875 C 14.453125 -10.753906 14.414062 -10.835938 14.375 -10.921875 C 14.289062 -11.148438 14.195312 -11.359375 14.09375 -11.546875 C 14 -11.742188 13.910156 -11.945312 13.828125 -12.15625 C 13.703125 -12.425781 13.578125 -12.6875 13.453125 -12.9375 C 13.328125 -13.195312 13.222656 -13.460938 13.140625 -13.734375 C 13.117188 -13.816406 13.085938 -13.890625 13.046875 -13.953125 C 13.003906 -14.023438 12.960938 -14.101562 12.921875 -14.1875 C 12.878906 -14.289062 12.820312 -14.40625 12.75 -14.53125 C 12.6875 -14.65625 12.632812 -14.769531 12.59375 -14.875 C 12.507812 -15.0625 12.421875 -15.25 12.328125 -15.4375 C 12.234375 -15.632812 12.144531 -15.828125 12.0625 -16.015625 C 12 -16.179688 11.9375 -16.359375 11.875 -16.546875 C 11.8125 -16.742188 11.757812 -16.925781 11.71875 -17.09375 C 11.675781 -17.238281 11.628906 -17.378906 11.578125 -17.515625 C 11.535156 -17.660156 11.492188 -17.804688 11.453125 -17.953125 C 11.429688 -18.078125 11.394531 -18.195312 11.34375 -18.3125 C 11.289062 -18.425781 11.242188 -18.535156 11.203125 -18.640625 C 11.179688 -18.679688 11.160156 -18.726562 11.140625 -18.78125 C 11.117188 -18.832031 11.097656 -18.875 11.078125 -18.90625 C 11.015625 -18.988281 10.960938 -19.007812 10.921875 -18.96875 C 10.835938 -18.925781 10.796875 -18.878906 10.796875 -18.828125 C 10.734375 -18.660156 10.679688 -18.488281 10.640625 -18.3125 C 10.597656 -18.132812 10.554688 -17.960938 10.515625 -17.796875 C 10.492188 -17.660156 10.460938 -17.535156 10.421875 -17.421875 C 10.378906 -17.304688 10.320312 -17.1875 10.25 -17.0625 C 10.164062 -16.914062 10.113281 -16.769531 10.09375 -16.625 C 10.070312 -16.539062 10.046875 -16.4375 10.015625 -16.3125 C 9.984375 -16.195312 9.945312 -16.085938 9.90625 -15.984375 C 9.84375 -15.816406 9.796875 -15.648438 9.765625 -15.484375 C 9.734375 -15.316406 9.675781 -15.144531 9.59375 -14.96875 C 9.445312 -14.570312 9.300781 -14.171875 9.15625 -13.765625 C 9.019531 -13.367188 8.878906 -12.957031 8.734375 -12.53125 C 8.648438 -12.21875 8.5625 -11.894531 8.46875 -11.5625 C 8.375 -11.238281 8.285156 -10.910156 8.203125 -10.578125 C 8.117188 -10.191406 8.015625 -9.800781 7.890625 -9.40625 C 7.773438 -9.019531 7.632812 -8.648438 7.46875 -8.296875 C 7.445312 -8.253906 7.4375 -8.160156 7.4375 -8.015625 C 7.414062 -7.972656 7.445312 -7.925781 7.53125 -7.875 C 7.59375 -7.832031 7.6875 -7.8125 7.8125 -7.8125 C 8.238281 -7.8125 8.671875 -7.8125 9.109375 -7.8125 C 9.554688 -7.8125 10.023438 -7.8125 10.515625 -7.8125 Z M 10.515625 -7.8125 "/></g></g></g></g></g></g><g transform="matrix(1, 0, 0, 1, 49, 232)"><g clip-path="url(#eaf63900b4)"><g fill="#000000" fill-opacity="1"><g transform="translate(1.016822, 9.083684)"><g><path d="M 2.75 0.078125 C 2.28125 0.078125 1.828125 0.00390625 1.390625 -0.140625 C 0.953125 -0.285156 0.609375 -0.476562 0.359375 -0.71875 L 0.6875 -1.40625 C 0.925781 -1.195312 1.234375 -1.023438 1.609375 -0.890625 C 1.984375 -0.753906 2.363281 -0.6875 2.75 -0.6875 C 3.269531 -0.6875 3.65625 -0.773438 3.90625 -0.953125 C 4.164062 -1.128906 4.296875 -1.359375 4.296875 -1.640625 C 4.296875 -1.859375 4.222656 -2.035156 4.078125 -2.171875 C 3.941406 -2.304688 3.769531 -2.40625 3.5625 -2.46875 C 3.363281 -2.539062 3.078125 -2.625 2.703125 -2.71875 C 2.234375 -2.832031 1.851562 -2.941406 1.5625 -3.046875 C 1.269531 -3.160156 1.019531 -3.332031 0.8125 -3.5625 C 0.613281 -3.800781 0.515625 -4.125 0.515625 -4.53125 C 0.515625 -4.851562 0.601562 -5.148438 0.78125 -5.421875 C 0.957031 -5.691406 1.222656 -5.90625 1.578125 -6.0625 C 1.929688 -6.226562 2.375 -6.3125 2.90625 -6.3125 C 3.269531 -6.3125 3.628906 -6.257812 3.984375 -6.15625 C 4.347656 -6.0625 4.65625 -5.925781 4.90625 -5.75 L 4.609375 -5.046875 C 4.347656 -5.210938 4.066406 -5.335938 3.765625 -5.421875 C 3.472656 -5.503906 3.1875 -5.546875 2.90625 -5.546875 C 2.394531 -5.546875 2.015625 -5.453125 1.765625 -5.265625 C 1.515625 -5.085938 1.390625 -4.851562 1.390625 -4.5625 C 1.390625 -4.34375 1.457031 -4.164062 1.59375 -4.03125 C 1.738281 -3.90625 1.914062 -3.800781 2.125 -3.71875 C 2.34375 -3.644531 2.632812 -3.566406 3 -3.484375 C 3.46875 -3.378906 3.84375 -3.269531 4.125 -3.15625 C 4.40625 -3.039062 4.648438 -2.863281 4.859375 -2.625 C 5.066406 -2.394531 5.171875 -2.085938 5.171875 -1.703125 C 5.171875 -1.378906 5.078125 -1.082031 4.890625 -0.8125 C 4.710938 -0.539062 4.441406 -0.320312 4.078125 -0.15625 C 3.722656 0 3.28125 0.078125 2.75 0.078125 Z M 2.75 0.078125 "/></g></g></g><g fill="#000000" fill-opacity="1"><g transform="translate(13.662114, 9.083684)"><g><path d="M 0.9375 -6.234375 L 1.828125 -6.234375 L 1.828125 0 L 0.9375 0 Z M 0.9375 -6.234375 "/></g></g></g><g fill="#000000" fill-opacity="1"><g transform="translate(23.539858, 9.083684)"><g><path d="M 5.25 -3.15625 L 6.109375 -3.15625 L 6.109375 -0.71875 C 5.796875 -0.46875 5.4375 -0.269531 5.03125 -0.125 C 4.625 0.0078125 4.195312 0.078125 3.75 0.078125 C 3.125 0.078125 2.554688 -0.0546875 2.046875 -0.328125 C 1.546875 -0.609375 1.148438 -0.988281 0.859375 -1.46875 C 0.566406 -1.957031 0.421875 -2.507812 0.421875 -3.125 C 0.421875 -3.726562 0.566406 -4.269531 0.859375 -4.75 C 1.148438 -5.238281 1.546875 -5.617188 2.046875 -5.890625 C 2.554688 -6.171875 3.128906 -6.3125 3.765625 -6.3125 C 4.265625 -6.3125 4.71875 -6.226562 5.125 -6.0625 C 5.53125 -5.894531 5.875 -5.65625 6.15625 -5.34375 L 5.609375 -4.796875 C 5.109375 -5.273438 4.503906 -5.515625 3.796875 -5.515625 C 3.328125 -5.515625 2.898438 -5.410156 2.515625 -5.203125 C 2.140625 -5.003906 1.84375 -4.71875 1.625 -4.34375 C 1.414062 -3.976562 1.3125 -3.570312 1.3125 -3.125 C 1.3125 -2.664062 1.414062 -2.253906 1.625 -1.890625 C 1.84375 -1.523438 2.140625 -1.238281 2.515625 -1.03125 C 2.898438 -0.820312 3.328125 -0.71875 3.796875 -0.71875 C 4.347656 -0.71875 4.832031 -0.851562 5.25 -1.125 Z M 5.25 -3.15625 "/></g></g></g><g fill="#000000" fill-opacity="1"><g transform="translate(37.528872, 9.083684)"><g><path d="M 6.296875 -6.234375 L 6.296875 0 L 5.5625 0 L 1.828125 -4.65625 L 1.828125 0 L 0.9375 0 L 0.9375 -6.234375 L 1.671875 -6.234375 L 5.40625 -1.578125 L 5.40625 -6.234375 Z M 6.296875 -6.234375 "/></g></g></g><g fill="#000000" fill-opacity="1"><g transform="translate(51.873844, 9.083684)"><g><path d="M 0.9375 -6.234375 L 1.828125 -6.234375 L 1.828125 0 L 0.9375 0 Z M 0.9375 -6.234375 "/></g></g></g><g fill="#000000" fill-opacity="1"><g transform="translate(61.751589, 9.083684)"><g><path d="M 6.296875 -6.234375 L 6.296875 0 L 5.5625 0 L 1.828125 -4.65625 L 1.828125 0 L 0.9375 0 L 0.9375 -6.234375 L 1.671875 -6.234375 L 5.40625 -1.578125 L 5.40625 -6.234375 Z M 6.296875 -6.234375 "/></g></g></g><g fill="#000000" fill-opacity="1"><g transform="translate(76.096561, 9.083684)"><g><path d="M 5.25 -3.15625 L 6.109375 -3.15625 L 6.109375 -0.71875 C 5.796875 -0.46875 5.4375 -0.269531 5.03125 -0.125 C 4.625 0.0078125 4.195312 0.078125 3.75 0.078125 C 3.125 0.078125 2.554688 -0.0546875 2.046875 -0.328125 C 1.546875 -0.609375 1.148438 -0.988281 0.859375 -1.46875 C 0.566406 -1.957031 0.421875 -2.507812 0.421875 -3.125 C 0.421875 -3.726562 0.566406 -4.269531 0.859375 -4.75 C 1.148438 -5.238281 1.546875 -5.617188 2.046875 -5.890625 C 2.554688 -6.171875 3.128906 -6.3125 3.765625 -6.3125 C 4.265625 -6.3125 4.71875 -6.226562 5.125 -6.0625 C 5.53125 -5.894531 5.875 -5.65625 6.15625 -5.34375 L 5.609375 -4.796875 C 5.109375 -5.273438 4.503906 -5.515625 3.796875 -5.515625 C 3.328125 -5.515625 2.898438 -5.410156 2.515625 -5.203125 C 2.140625 -5.003906 1.84375 -4.71875 1.625 -4.34375 C 1.414062 -3.976562 1.3125 -3.570312 1.3125 -3.125 C 1.3125 -2.664062 1.414062 -2.253906 1.625 -1.890625 C 1.84375 -1.523438 2.140625 -1.238281 2.515625 -1.03125 C 2.898438 -0.820312 3.328125 -0.71875 3.796875 -0.71875 C 4.347656 -0.71875 4.832031 -0.851562 5.25 -1.125 Z M 5.25 -3.15625 "/></g></g></g><g fill="#000000" fill-opacity="1"><g transform="translate(90.085575, 9.083684)"><g/></g></g><g fill="#000000" fill-opacity="1"><g transform="translate(99.598473, 9.083684)"><g><path d="M 3.359375 -6.234375 C 4.171875 -6.234375 4.804688 -6.039062 5.265625 -5.65625 C 5.734375 -5.269531 5.96875 -4.738281 5.96875 -4.0625 C 5.96875 -3.382812 5.734375 -2.851562 5.265625 -2.46875 C 4.804688 -2.082031 4.171875 -1.890625 3.359375 -1.890625 L 1.828125 -1.890625 L 1.828125 0 L 0.9375 0 L 0.9375 -6.234375 Z M 3.34375 -2.65625 C 3.90625 -2.65625 4.332031 -2.773438 4.625 -3.015625 C 4.925781 -3.265625 5.078125 -3.613281 5.078125 -4.0625 C 5.078125 -4.507812 4.925781 -4.851562 4.625 -5.09375 C 4.332031 -5.332031 3.90625 -5.453125 3.34375 -5.453125 L 1.828125 -5.453125 L 1.828125 -2.65625 Z M 3.34375 -2.65625 "/></g></g></g><g fill="#000000" fill-opacity="1"><g transform="translate(113.142539, 9.083684)"><g><path d="M 0.9375 -6.234375 L 1.828125 -6.234375 L 1.828125 -0.78125 L 5.203125 -0.78125 L 5.203125 0 L 0.9375 0 Z M 0.9375 -6.234375 "/></g></g></g><g fill="#000000" fill-opacity="1"><g transform="translate(125.547563, 9.083684)"><g><path d="M 4.90625 -1.5625 L 1.59375 -1.5625 L 0.90625 0 L -0.015625 0 L 2.8125 -6.234375 L 3.703125 -6.234375 L 6.53125 0 L 5.59375 0 Z M 4.59375 -2.265625 L 3.25 -5.328125 L 1.90625 -2.265625 Z M 4.59375 -2.265625 "/></g></g></g><g fill="#000000" fill-opacity="1"><g transform="translate(139.180625, 9.083684)"><g><path d="M 2.171875 -5.453125 L 0.03125 -5.453125 L 0.03125 -6.234375 L 5.1875 -6.234375 L 5.1875 -5.453125 L 3.0625 -5.453125 L 3.0625 0 L 2.171875 0 Z M 2.171875 -5.453125 "/></g></g></g><g fill="#000000" fill-opacity="1"><g transform="translate(151.523345, 9.083684)"><g><path d="M 1.828125 -5.453125 L 1.828125 -3.28125 L 4.953125 -3.28125 L 4.953125 -2.515625 L 1.828125 -2.515625 L 1.828125 0 L 0.9375 0 L 0.9375 -6.234375 L 5.328125 -6.234375 L 5.328125 -5.453125 Z M 1.828125 -5.453125 "/></g></g></g><g fill="#000000" fill-opacity="1"><g transform="translate(164.293226, 9.083684)"><g><path d="M 3.75 0.078125 C 3.125 0.078125 2.554688 -0.0546875 2.046875 -0.328125 C 1.546875 -0.609375 1.148438 -0.992188 0.859375 -1.484375 C 0.566406 -1.972656 0.421875 -2.519531 0.421875 -3.125 C 0.421875 -3.71875 0.566406 -4.257812 0.859375 -4.75 C 1.148438 -5.238281 1.546875 -5.617188 2.046875 -5.890625 C 2.554688 -6.171875 3.125 -6.3125 3.75 -6.3125 C 4.375 -6.3125 4.9375 -6.171875 5.4375 -5.890625 C 5.945312 -5.617188 6.34375 -5.238281 6.625 -4.75 C 6.90625 -4.269531 7.046875 -3.726562 7.046875 -3.125 C 7.046875 -2.507812 6.90625 -1.957031 6.625 -1.46875 C 6.34375 -0.988281 5.945312 -0.609375 5.4375 -0.328125 C 4.9375 -0.0546875 4.375 0.078125 3.75 0.078125 Z M 3.75 -0.71875 C 4.207031 -0.71875 4.617188 -0.820312 4.984375 -1.03125 C 5.347656 -1.238281 5.632812 -1.523438 5.84375 -1.890625 C 6.050781 -2.253906 6.15625 -2.664062 6.15625 -3.125 C 6.15625 -3.570312 6.050781 -3.976562 5.84375 -4.34375 C 5.632812 -4.707031 5.347656 -4.992188 4.984375 -5.203125 C 4.617188 -5.410156 4.207031 -5.515625 3.75 -5.515625 C 3.289062 -5.515625 2.875 -5.410156 2.5 -5.203125 C 2.132812 -4.992188 1.84375 -4.707031 1.625 -4.34375 C 1.414062 -3.976562 1.3125 -3.570312 1.3125 -3.125 C 1.3125 -2.664062 1.414062 -2.253906 1.625 -1.890625 C 1.84375 -1.523438 2.132812 -1.238281 2.5 -1.03125 C 2.875 -0.820312 3.289062 -0.71875 3.75 -0.71875 Z M 3.75 -0.71875 "/></g></g></g><g fill="#000000" fill-opacity="1"><g transform="translate(178.88736, 9.083684)"><g><path d="M 5.109375 0 L 3.765625 -1.921875 C 3.597656 -1.898438 3.460938 -1.890625 3.359375 -1.890625 L 1.828125 -1.890625 L 1.828125 0 L 0.9375 0 L 0.9375 -6.234375 L 3.359375 -6.234375 C 4.171875 -6.234375 4.804688 -6.039062 5.265625 -5.65625 C 5.734375 -5.269531 5.96875 -4.738281 5.96875 -4.0625 C 5.96875 -3.582031 5.847656 -3.171875 5.609375 -2.828125 C 5.367188 -2.492188 5.03125 -2.25 4.59375 -2.09375 L 6.078125 0 Z M 3.34375 -2.65625 C 3.90625 -2.65625 4.332031 -2.773438 4.625 -3.015625 C 4.925781 -3.265625 5.078125 -3.613281 5.078125 -4.0625 C 5.078125 -4.507812 4.925781 -4.851562 4.625 -5.09375 C 4.332031 -5.332031 3.90625 -5.453125 3.34375 -5.453125 L 1.828125 -5.453125 L 1.828125 -2.65625 Z M 3.34375 -2.65625 "/></g></g></g><g fill="#000000" fill-opacity="1"><g transform="translate(192.475929, 9.083684)"><g><path d="M 6.71875 0 L 6.703125 -4.546875 L 4.453125 -0.75 L 4.046875 -0.75 L 1.796875 -4.515625 L 1.796875 0 L 0.9375 0 L 0.9375 -6.234375 L 1.671875 -6.234375 L 4.265625 -1.859375 L 6.828125 -6.234375 L 7.5625 -6.234375 L 7.578125 0 Z M 6.71875 0 "/></g></g></g></g></g><g clip-path="url(#aa059b4ad3)"><path fill="#000000" d="M 179.191406 162.609375 C 173.445312 162.597656 170.304688 164.601562 167.425781 166.433594 C 164.035156 168.59375 160.992188 170.535156 154.695312 168.9375 C 154.5625 168.90625 154.179688 168.78125 153.605469 168.597656 C 150.382812 167.554688 140.894531 164.484375 135.503906 164.417969 C 132.859375 164.386719 131.886719 164.945312 131.878906 165.789062 C 131.855469 167.644531 135.542969 170.890625 137.722656 172.808594 C 138.292969 173.3125 138.765625 173.726562 139.0625 174.023438 C 141.136719 176.109375 141.835938 178.078125 141.589844 179.515625 C 141.457031 180.296875 141.050781 180.921875 140.4375 181.339844 C 139.839844 181.742188 139.054688 181.941406 138.132812 181.875 C 135.855469 181.714844 132.6875 179.921875 129.652344 175.578125 C 128.675781 174.183594 127.71875 172.824219 126.707031 171.910156 C 125.757812 171.046875 124.746094 170.574219 123.597656 170.855469 C 121.785156 171.300781 121.523438 172.996094 121.242188 174.867188 C 120.925781 176.9375 120.582031 179.195312 118.3125 180.542969 C 116.253906 181.765625 114.527344 181.453125 112.746094 181.132812 C 111.410156 180.894531 110.042969 180.648438 108.503906 181.121094 C 106.957031 181.597656 105.34375 182.027344 103.707031 182.253906 C 102.269531 182.449219 100.816406 182.484375 99.359375 182.246094 L 99.832031 181.535156 C 101.089844 181.699219 102.351562 181.65625 103.601562 181.488281 C 105.195312 181.269531 106.765625 180.84375 108.28125 180.378906 C 109.996094 179.855469 111.457031 180.117188 112.882812 180.375 C 114.519531 180.667969 116.105469 180.953125 117.921875 179.875 C 119.871094 178.714844 120.1875 176.648438 120.472656 174.753906 C 120.800781 172.613281 121.09375 170.671875 123.417969 170.105469 C 124.859375 169.75 126.089844 170.304688 127.226562 171.335938 C 128.304688 172.308594 129.285156 173.707031 130.285156 175.136719 C 133.167969 179.257812 136.101562 180.957031 138.183594 181.101562 C 138.925781 181.15625 139.546875 181.003906 140.003906 180.695312 C 140.441406 180.398438 140.730469 179.949219 140.828125 179.382812 C 141.035156 178.171875 140.390625 176.457031 138.515625 174.570312 C 138.253906 174.308594 137.785156 173.894531 137.210938 173.390625 C 134.933594 171.386719 131.078125 167.992188 131.105469 165.78125 C 131.121094 164.476562 132.300781 163.605469 135.515625 163.644531 C 141.023438 163.714844 150.589844 166.808594 153.839844 167.859375 C 154.394531 168.035156 154.757812 168.15625 154.882812 168.1875 C 160.859375 169.699219 163.769531 167.847656 167.011719 165.78125 C 168.839844 164.617188 170.769531 163.386719 173.375 162.617188 C 175.308594 162.046875 177.863281 161.878906 179.191406 162.609375 " fill-opacity="1" fill-rule="nonzero"/></g><g clip-path="url(#f7dc4a169c)"><path fill="#000000" d="M 107.914062 169.359375 C 104.535156 165.71875 106.511719 157.757812 107.726562 153.152344 C 109.398438 147.261719 111.394531 141.976562 113.523438 138.003906 C 116.933594 135.945312 130.851562 130.480469 140.917969 113.042969 L 128.976562 118.402344 C 143.691406 108.6875 153.613281 90.371094 171.976562 80.464844 C 171.976562 80.464844 159.535156 81.050781 152.925781 85.679688 C 152.925781 85.679688 160.652344 79.105469 180.160156 76.238281 L 172.871094 72.621094 L 182.8125 73.917969 C 182.8125 73.917969 187.644531 62.230469 200.558594 57.941406 C 200.558594 57.941406 154.667969 47.226562 139.261719 82.535156 C 139.261719 82.535156 142.027344 73.789062 146.265625 66.25 C 146.265625 66.25 124.6875 70.867188 114.332031 100.390625 C 114.332031 100.390625 116.816406 88.273438 119.449219 82.871094 C 119.449219 82.871094 106.1875 94.746094 106.742188 118.273438 C 106.742188 118.273438 103.675781 110.347656 104.492188 103.746094 C 104.492188 103.746094 93.804688 118.3125 107.054688 134.914062 C 108.789062 131.039062 125.671875 91.667969 151.691406 78.191406 C 120.625 101.203125 103.40625 144.445312 99.359375 182.246094 L 107.914062 169.359375 " fill-opacity="1" fill-rule="evenodd"/></g></svg>